<svg width="326" height="97" viewBox="0 0 326 97" fill="none" xmlns="http://www.w3.org/2000/svg">
<rect width="325.551" height="96" transform="translate(0.224121 0.5)" fill="#FAFDFF"/>
<path d="M30.8381 27.2147L41.4807 23.7374V43.4421H21.3546L21.2492 40.3863L30.8381 27.2147Z" fill="url(#paint0_linear_106_89)"/>
<path d="M30.8381 69.8905L41.4807 73.3678V53.3471H21.3546V56.719L30.8381 69.8905Z" fill="url(#paint1_linear_106_89)"/>
<path d="M24.6211 18.6796L11.3442 37.1197L21.3546 40.3863L30.8381 27.2147L24.6211 18.6796Z" fill="url(#paint2_linear_106_89)"/>
<path d="M24.6211 18.6796L46.3278 11.6196V22.1569L30.8381 27.2147L24.6211 18.6796Z" fill="url(#paint3_linear_106_89)"/>
<path d="M11.3442 37.1197V59.8801L21.3546 56.719V40.3863L11.3442 37.1197Z" fill="url(#paint4_linear_106_89)"/>
<path d="M11.3442 59.8801L24.6211 78.3203L30.8381 69.8905L21.3546 56.719L11.3442 59.8801Z" fill="url(#paint5_linear_106_89)"/>
<path d="M24.6211 78.3203L46.3278 85.3802V74.843L30.8381 69.8905L24.6211 78.3203Z" fill="url(#paint6_linear_106_89)"/>
<path d="M61.2907 80.4277L46.3278 85.3802V74.843L51.3857 73.5786V53.3471L61.2907 63.5682V80.4277Z" fill="url(#paint7_linear_106_89)"/>
<path d="M51.3857 53.3471H71.4065L81.4168 63.4628L61.2907 63.5682L51.3857 53.3471Z" fill="url(#paint8_linear_106_89)"/>
<path d="M61.7122 27.2147L46.3278 22.1569V11.6196L67.9292 18.6796L61.7122 27.2147Z" fill="url(#paint9_linear_106_89)"/>
<path d="M71.4065 40.3863L61.7122 27.2147L67.9292 18.6796L81.4168 37.1197L71.4065 40.3863Z" fill="url(#paint10_linear_106_89)"/>
<path d="M71.4065 53.3471V40.3863L81.4168 37.1197V63.4628L71.4065 53.3471Z" fill="url(#paint11_linear_106_89)"/>
<path d="M51.3857 43.4421V23.7374L61.7122 27.2147L71.4065 40.3863V43.4421H51.3857Z" fill="url(#paint12_linear_106_89)"/>
<path d="M122.871 59.4744C120.372 59.4744 118.063 59.0633 115.944 58.2409C113.856 57.3869 112.038 56.2008 110.488 54.6826C108.969 53.1328 107.783 51.3141 106.929 49.2265C106.107 47.1074 105.696 44.7984 105.696 42.2997C105.696 39.8326 106.123 37.5553 106.977 35.4678C107.862 33.3802 109.096 31.5615 110.677 30.0117C112.259 28.4619 114.109 27.26 116.228 26.406C118.379 25.552 120.704 25.125 123.203 25.125C124.784 25.125 126.334 25.3306 127.852 25.7417C129.37 26.1529 130.778 26.7697 132.075 27.5921C133.403 28.3828 134.542 29.3475 135.491 30.4861L130.509 36.132C129.529 35.0566 128.422 34.2184 127.188 33.6175C125.986 33.0165 124.642 32.716 123.155 32.716C121.89 32.716 120.688 32.9374 119.55 33.3802C118.442 33.823 117.478 34.4714 116.655 35.3254C115.833 36.1794 115.185 37.1916 114.71 38.3619C114.236 39.5321 113.999 40.8606 113.999 42.3472C113.999 43.8021 114.22 45.1305 114.663 46.3324C115.137 47.5027 115.801 48.5149 116.655 49.3689C117.541 50.1912 118.585 50.8238 119.787 51.2666C121.02 51.7094 122.38 51.9308 123.867 51.9308C124.847 51.9308 125.78 51.8043 126.666 51.5513C127.583 51.2666 128.437 50.8713 129.228 50.3652C130.019 49.8591 130.699 49.2898 131.268 48.6572L135.206 54.9198C134.447 55.7738 133.403 56.5487 132.075 57.2446C130.778 57.9404 129.323 58.4939 127.71 58.9051C126.128 59.2847 124.515 59.4744 122.871 59.4744ZM153.347 59V43.5333C153.347 42.2364 152.983 41.2876 152.255 40.6866C151.56 40.054 150.579 39.7377 149.314 39.7377C148.08 39.7377 146.973 39.9749 145.993 40.4494C145.044 40.8922 144.127 41.6355 143.241 42.6793L138.686 38.267C140.205 36.7171 141.944 35.4994 143.905 34.6138C145.866 33.7282 148.001 33.2853 150.31 33.2853C152.429 33.2853 154.264 33.6016 155.814 34.2342C157.364 34.8668 158.566 35.8315 159.42 37.1283C160.274 38.4251 160.701 40.0698 160.701 42.0625V59H153.347ZM146.799 59.4744C145.218 59.4744 143.779 59.1581 142.482 58.5256C141.217 57.893 140.205 57.0232 139.446 55.9161C138.718 54.7775 138.354 53.4491 138.354 51.9308C138.354 50.634 138.592 49.4954 139.066 48.5149C139.54 47.5344 140.236 46.7278 141.154 46.0952C142.102 45.431 143.273 44.9408 144.664 44.6245C146.088 44.2765 147.732 44.1026 149.599 44.1026H157.237L156.81 48.8944H149.788C149.124 48.8944 148.539 48.9577 148.033 49.0842C147.527 49.1791 147.1 49.353 146.752 49.6061C146.404 49.8275 146.135 50.0963 145.945 50.4126C145.787 50.7289 145.708 51.1085 145.708 51.5513C145.708 52.0257 145.835 52.4369 146.088 52.7848C146.341 53.1328 146.673 53.4016 147.084 53.5914C147.527 53.7812 148.033 53.876 148.602 53.876C149.425 53.876 150.2 53.7495 150.927 53.4965C151.686 53.2118 152.35 52.8165 152.92 52.3104C153.521 51.8043 153.995 51.2192 154.343 50.555L155.671 53.9709C155.007 55.0463 154.201 55.9952 153.252 56.8176C152.335 57.6399 151.322 58.2883 150.215 58.7628C149.14 59.2372 148.001 59.4744 146.799 59.4744ZM166.793 59V33.8072H174.052L174.384 42.015L172.96 40.4019C173.372 39.0735 174.004 37.8716 174.858 36.7962C175.712 35.7208 176.724 34.8668 177.895 34.2342C179.096 33.6016 180.346 33.2853 181.643 33.2853C182.212 33.2853 182.734 33.3328 183.208 33.4277C183.714 33.4909 184.157 33.6016 184.537 33.7598L182.497 42.1574C182.149 41.9676 181.674 41.8095 181.073 41.6829C180.504 41.5248 179.903 41.4457 179.27 41.4457C178.575 41.4457 177.926 41.5722 177.325 41.8253C176.756 42.0467 176.25 42.3788 175.807 42.8216C175.396 43.2644 175.064 43.7863 174.811 44.3872C174.589 44.9882 174.479 45.6682 174.479 46.4273V59H166.793ZM199.367 59.4744C196.584 59.4744 194.149 58.9209 192.061 57.8139C190.005 56.7069 188.408 55.1887 187.269 53.2593C186.162 51.2983 185.609 49.0684 185.609 46.5697C185.609 44.6086 185.925 42.8216 186.558 41.2085C187.19 39.5638 188.076 38.1563 189.214 36.986C190.385 35.8157 191.745 34.9143 193.295 34.2817C194.876 33.6174 196.6 33.2853 198.466 33.2853C200.237 33.2853 201.85 33.6016 203.305 34.2342C204.76 34.8668 206.025 35.7524 207.101 36.8911C208.176 38.0297 208.999 39.374 209.568 40.9238C210.137 42.4737 210.406 44.1658 210.374 46.0003L210.327 48.0879H190.306L189.167 43.7705H204.112L203.305 44.6245V43.6756C203.242 42.8848 202.989 42.2048 202.546 41.6355C202.135 41.0345 201.581 40.5601 200.886 40.2122C200.221 39.8642 199.462 39.6903 198.608 39.6903C197.343 39.6903 196.268 39.9433 195.382 40.4494C194.528 40.9238 193.88 41.6197 193.437 42.5369C192.994 43.4542 192.773 44.5928 192.773 45.9529C192.773 47.313 193.057 48.5149 193.627 49.5586C194.228 50.6024 195.082 51.409 196.189 51.9783C197.327 52.5476 198.672 52.8323 200.221 52.8323C201.265 52.8323 202.214 52.6741 203.068 52.3578C203.922 52.0415 204.839 51.5038 205.82 50.7447L209.378 55.7738C208.398 56.5962 207.354 57.292 206.247 57.8613C205.14 58.399 204.001 58.7944 202.831 59.0474C201.692 59.3321 200.538 59.4744 199.367 59.4744ZM215.969 59V25.7892H230.344C232.432 25.7892 234.298 26.2636 235.943 27.2125C237.587 28.1614 238.884 29.4582 239.833 31.1029C240.782 32.716 241.256 34.5663 241.256 36.6539C241.256 38.773 240.782 40.6866 239.833 42.3946C238.884 44.1026 237.587 45.4468 235.943 46.4273C234.298 47.4078 232.432 47.8981 230.344 47.8981H224.082V59H215.969ZM223.987 40.7341H229.253C229.949 40.7341 230.566 40.5759 231.103 40.2596C231.673 39.9117 232.131 39.4373 232.479 38.8363C232.827 38.2353 233.001 37.5553 233.001 36.7962C233.001 36.0055 232.827 35.3254 232.479 34.7561C232.131 34.1868 231.673 33.744 231.103 33.4277C230.566 33.1114 229.949 32.9532 229.253 32.9532H223.987V40.7341ZM246.623 59V23.8914H254.261V59H246.623ZM273.995 59V43.5333C273.995 42.2364 273.632 41.2876 272.904 40.6866C272.208 40.054 271.228 39.7377 269.963 39.7377C268.729 39.7377 267.622 39.9749 266.642 40.4494C265.693 40.8922 264.775 41.6355 263.89 42.6793L259.335 38.267C260.853 36.7171 262.593 35.4994 264.554 34.6138C266.515 33.7282 268.65 33.2853 270.959 33.2853C273.078 33.2853 274.913 33.6016 276.462 34.2342C278.012 34.8668 279.214 35.8315 280.068 37.1283C280.922 38.4251 281.349 40.0698 281.349 42.0625V59H273.995ZM267.448 59.4744C265.867 59.4744 264.427 59.1581 263.131 58.5256C261.865 57.893 260.853 57.0232 260.094 55.9161C259.367 54.7775 259.003 53.4491 259.003 51.9308C259.003 50.634 259.24 49.4954 259.715 48.5149C260.189 47.5344 260.885 46.7278 261.802 46.0952C262.751 45.431 263.921 44.9408 265.313 44.6245C266.736 44.2765 268.381 44.1026 270.247 44.1026H277.886L277.459 48.8944H270.437C269.773 48.8944 269.188 48.9577 268.682 49.0842C268.176 49.1791 267.749 49.353 267.401 49.6061C267.053 49.8275 266.784 50.0963 266.594 50.4126C266.436 50.7289 266.357 51.1085 266.357 51.5513C266.357 52.0257 266.483 52.4369 266.736 52.7848C266.989 53.1328 267.322 53.4016 267.733 53.5914C268.176 53.7812 268.682 53.876 269.251 53.876C270.073 53.876 270.848 53.7495 271.576 53.4965C272.335 53.2118 272.999 52.8165 273.568 52.3104C274.169 51.8043 274.644 51.2192 274.992 50.555L276.32 53.9709C275.656 55.0463 274.849 55.9952 273.9 56.8176C272.983 57.6399 271.971 58.2883 270.864 58.7628C269.789 59.2372 268.65 59.4744 267.448 59.4744ZM287.441 59V33.8072H294.7L294.985 38.9312L293.419 39.5005C293.767 38.3619 294.384 37.3339 295.27 36.4166C296.187 35.4678 297.278 34.7087 298.543 34.1393C299.808 33.57 301.137 33.2853 302.528 33.2853C304.426 33.2853 306.024 33.6807 307.32 34.4714C308.617 35.2305 309.582 36.385 310.214 37.9349C310.879 39.4531 311.211 41.335 311.211 43.5807V59H303.572V44.15C303.572 43.1379 303.43 42.2997 303.145 41.6355C302.861 40.9713 302.434 40.481 301.864 40.1647C301.295 39.8484 300.583 39.7061 299.729 39.7377C299.065 39.7377 298.448 39.8484 297.879 40.0698C297.31 40.2596 296.804 40.5601 296.361 40.9713C295.95 41.3508 295.633 41.7936 295.412 42.2997C295.19 42.8058 295.08 43.3751 295.08 44.0077V59H291.237C290.414 59 289.671 59 289.007 59C288.374 59 287.852 59 287.441 59Z" fill="#3B3B3B"/>
<path d="M109.498 73.5676H110.969L113.135 79.7587L115.301 73.5676H116.772L113.726 82H112.544L109.498 73.5676ZM108.705 73.5676H110.17L110.436 79.6023V82H108.705V73.5676ZM116.1 73.5676H117.571V82H115.834V79.6023L116.1 73.5676ZM124.958 82.1158C124.472 82.1158 124.036 82.0386 123.65 81.8842C123.263 81.7259 122.935 81.5077 122.665 81.2297C122.399 80.9517 122.194 80.6293 122.051 80.2625C121.908 79.8919 121.837 79.4981 121.837 79.0811V78.8494C121.837 78.3745 121.904 77.9402 122.04 77.5463C122.175 77.1525 122.368 76.8108 122.619 76.5212C122.873 76.2317 123.182 76.0097 123.545 75.8552C123.908 75.6969 124.317 75.6178 124.773 75.6178C125.217 75.6178 125.611 75.6911 125.955 75.8378C126.298 75.9846 126.586 76.1931 126.817 76.4633C127.053 76.7336 127.231 77.0579 127.35 77.4363C127.47 77.8108 127.53 78.2278 127.53 78.6873V79.3822H122.549V78.2703H125.891V78.1429C125.891 77.9112 125.848 77.7046 125.763 77.5232C125.682 77.3378 125.559 77.1911 125.393 77.083C125.227 76.9749 125.014 76.9208 124.756 76.9208C124.536 76.9208 124.346 76.9691 124.188 77.0656C124.03 77.1622 123.901 77.2973 123.8 77.471C123.704 77.6448 123.63 77.8494 123.58 78.0849C123.534 78.3166 123.511 78.5714 123.511 78.8494V79.0811C123.511 79.332 123.545 79.5637 123.615 79.7761C123.688 79.9884 123.79 80.1718 123.922 80.3263C124.057 80.4807 124.219 80.6004 124.408 80.6853C124.601 80.7703 124.819 80.8127 125.063 80.8127C125.364 80.8127 125.644 80.7548 125.902 80.639C126.165 80.5193 126.391 80.3398 126.58 80.1004L127.391 80.9807C127.26 81.1699 127.08 81.3514 126.852 81.5251C126.628 81.6988 126.358 81.8417 126.041 81.9537C125.725 82.0618 125.364 82.1158 124.958 82.1158ZM135.264 80.6332V73.1042H136.944V82H135.432L135.264 80.6332ZM131.303 78.9421V78.8205C131.303 78.3417 131.357 77.9073 131.465 77.5174C131.573 77.1236 131.731 76.7857 131.94 76.5039C132.148 76.222 132.405 76.0039 132.71 75.8494C133.015 75.695 133.363 75.6178 133.753 75.6178C134.12 75.6178 134.44 75.695 134.714 75.8494C134.992 76.0039 135.228 76.2239 135.421 76.5097C135.618 76.7915 135.776 77.1255 135.896 77.5116C136.015 77.8938 136.102 78.3127 136.156 78.7683V79.0347C136.102 79.471 136.015 79.8764 135.896 80.251C135.776 80.6255 135.618 80.9537 135.421 81.2355C135.228 81.5135 134.992 81.7297 134.714 81.8842C134.436 82.0386 134.112 82.1158 133.741 82.1158C133.351 82.1158 133.004 82.0367 132.699 81.8784C132.397 81.7201 132.143 81.4981 131.934 81.2124C131.73 80.9266 131.573 80.5907 131.465 80.2046C131.357 79.8185 131.303 79.3977 131.303 78.9421ZM132.971 78.8205V78.9421C132.971 79.2008 132.99 79.4421 133.029 79.666C133.071 79.89 133.139 80.0888 133.231 80.2625C133.328 80.4324 133.452 80.5656 133.602 80.6622C133.757 80.7548 133.944 80.8012 134.164 80.8012C134.45 80.8012 134.685 80.7375 134.87 80.61C135.056 80.4788 135.197 80.2992 135.293 80.0714C135.394 79.8436 135.452 79.5811 135.467 79.2838V78.5251C135.455 78.2819 135.421 78.0637 135.363 77.8707C135.309 77.6737 135.228 77.5058 135.12 77.3668C135.015 77.2278 134.884 77.1197 134.726 77.0425C134.571 76.9653 134.388 76.9266 134.175 76.9266C133.959 76.9266 133.774 76.9768 133.62 77.0772C133.465 77.1737 133.34 77.3069 133.243 77.4768C133.15 77.6467 133.081 77.8475 133.035 78.0792C132.992 78.3069 132.971 78.5541 132.971 78.8205ZM143.091 75.7336V82H141.418V75.7336H143.091ZM141.313 74.1004C141.313 73.8571 141.398 73.6564 141.568 73.4981C141.738 73.3398 141.966 73.2606 142.252 73.2606C142.533 73.2606 142.759 73.3398 142.929 73.4981C143.103 73.6564 143.19 73.8571 143.19 74.1004C143.19 74.3436 143.103 74.5444 142.929 74.7027C142.759 74.861 142.533 74.9402 142.252 74.9402C141.966 74.9402 141.738 74.861 141.568 74.7027C141.398 74.5444 141.313 74.3436 141.313 74.1004ZM150.142 80.8127C150.347 80.8127 150.529 80.7741 150.687 80.6969C150.845 80.6158 150.969 80.5039 151.057 80.361C151.15 80.2143 151.198 80.0425 151.202 79.8456H152.772C152.768 80.2857 152.65 80.6776 152.419 81.0212C152.187 81.361 151.876 81.6293 151.486 81.8263C151.096 82.0193 150.66 82.1158 150.177 82.1158C149.691 82.1158 149.266 82.0347 148.903 81.8726C148.544 81.7104 148.245 81.4865 148.005 81.2008C147.766 80.9112 147.586 80.5753 147.467 80.1931C147.347 79.8069 147.287 79.3938 147.287 78.9537V78.7857C147.287 78.3417 147.347 77.9286 147.467 77.5463C147.586 77.1602 147.766 76.8243 148.005 76.5386C148.245 76.249 148.544 76.0232 148.903 75.861C149.262 75.6988 149.683 75.6178 150.166 75.6178C150.679 75.6178 151.129 75.7162 151.515 75.9131C151.905 76.11 152.21 76.3919 152.43 76.7587C152.654 77.1216 152.768 77.5521 152.772 78.0502H151.202C151.198 77.8417 151.154 77.6525 151.069 77.4826C150.988 77.3127 150.868 77.1776 150.71 77.0772C150.556 76.973 150.364 76.9208 150.137 76.9208C149.893 76.9208 149.695 76.973 149.54 77.0772C149.386 77.1776 149.266 77.3166 149.181 77.4942C149.096 77.668 149.036 77.8668 149.002 78.0907C148.971 78.3108 148.955 78.5425 148.955 78.7857V78.9537C148.955 79.1969 148.971 79.4305 149.002 79.6544C149.032 79.8784 149.09 80.0772 149.175 80.251C149.264 80.4247 149.386 80.5618 149.54 80.6622C149.695 80.7625 149.895 80.8127 150.142 80.8127ZM160.205 80.5869V77.7954C160.205 77.5946 160.172 77.4228 160.107 77.2799C160.041 77.1332 159.939 77.0193 159.8 76.9382C159.665 76.8571 159.489 76.8166 159.273 76.8166C159.087 76.8166 158.927 76.8494 158.792 76.9151C158.657 76.9768 158.553 77.0676 158.479 77.1873C158.406 77.3031 158.369 77.4402 158.369 77.5985H156.701C156.701 77.332 156.763 77.0792 156.887 76.8398C157.01 76.6004 157.19 76.39 157.425 76.2085C157.661 76.0232 157.941 75.8784 158.265 75.7741C158.593 75.6699 158.96 75.6178 159.365 75.6178C159.852 75.6178 160.284 75.6988 160.663 75.861C161.041 76.0232 161.338 76.2664 161.554 76.5907C161.775 76.9151 161.885 77.3205 161.885 77.8069V80.4884C161.885 80.832 161.906 81.1139 161.948 81.334C161.991 81.5502 162.053 81.7394 162.134 81.9015V82H160.448C160.367 81.8301 160.305 81.6178 160.263 81.3629C160.224 81.1042 160.205 80.8456 160.205 80.5869ZM160.425 78.1834L160.437 79.1274H159.504C159.284 79.1274 159.093 79.1525 158.931 79.2027C158.769 79.2529 158.636 79.3243 158.531 79.417C158.427 79.5058 158.35 79.61 158.3 79.7297C158.253 79.8494 158.23 79.9807 158.23 80.1236C158.23 80.2664 158.263 80.3958 158.329 80.5116C158.394 80.6236 158.489 80.7124 158.612 80.778C158.736 80.8398 158.881 80.8707 159.047 80.8707C159.298 80.8707 159.516 80.8205 159.701 80.7201C159.887 80.6197 160.029 80.4961 160.13 80.3494C160.234 80.2027 160.288 80.0637 160.292 79.9324L160.732 80.639C160.67 80.7973 160.585 80.9614 160.477 81.1313C160.373 81.3012 160.24 81.4614 160.078 81.612C159.915 81.7587 159.721 81.8803 159.493 81.9768C159.265 82.0695 158.995 82.1158 158.682 82.1158C158.284 82.1158 157.923 82.0367 157.599 81.8784C157.278 81.7162 157.024 81.4942 156.834 81.2124C156.649 80.9266 156.556 80.6023 156.556 80.2394C156.556 79.9112 156.618 79.6197 156.742 79.3649C156.865 79.11 157.047 78.8958 157.286 78.722C157.529 78.5444 157.832 78.4112 158.195 78.3224C158.558 78.2297 158.979 78.1834 159.458 78.1834H160.425ZM168.015 73.1042V82H166.341V73.1042H168.015ZM180.183 76.9382V84.4093H178.515V75.7336H180.061L180.183 76.9382ZM184.15 78.7973V78.9189C184.15 79.3745 184.096 79.7973 183.988 80.1873C183.883 80.5772 183.729 80.917 183.524 81.2066C183.32 81.4923 183.065 81.7162 182.76 81.8784C182.459 82.0367 182.111 82.1158 181.717 82.1158C181.335 82.1158 181.003 82.0386 180.721 81.8842C180.439 81.7297 180.202 81.5135 180.009 81.2355C179.82 80.9537 179.667 80.6274 179.551 80.2568C179.435 79.8861 179.347 79.4884 179.285 79.0637V78.7452C179.347 78.2896 179.435 77.8726 179.551 77.4942C179.667 77.112 179.82 76.7819 180.009 76.5039C180.202 76.222 180.437 76.0039 180.715 75.8494C180.997 75.695 181.327 75.6178 181.706 75.6178C182.103 75.6178 182.453 75.6931 182.754 75.8436C183.059 75.9942 183.314 76.2104 183.518 76.4923C183.727 76.7741 183.883 77.11 183.988 77.5C184.096 77.89 184.15 78.3224 184.15 78.7973ZM182.476 78.9189V78.7973C182.476 78.5309 182.453 78.2857 182.406 78.0618C182.364 77.834 182.294 77.6351 182.198 77.4653C182.105 77.2954 181.982 77.1641 181.827 77.0714C181.677 76.9749 181.493 76.9266 181.277 76.9266C181.049 76.9266 180.854 76.9633 180.692 77.0367C180.534 77.11 180.405 77.2162 180.304 77.3552C180.204 77.4942 180.128 77.6602 180.078 77.8533C180.028 78.0463 179.997 78.2645 179.986 78.5077V79.3127C180.005 79.5985 180.059 79.8552 180.148 80.083C180.237 80.3069 180.374 80.4846 180.559 80.6158C180.744 80.7471 180.988 80.8127 181.289 80.8127C181.509 80.8127 181.694 80.7645 181.845 80.668C181.995 80.5676 182.117 80.4305 182.21 80.2568C182.306 80.083 182.374 79.8822 182.412 79.6544C182.455 79.4266 182.476 79.1815 182.476 78.9189ZM190.031 73.1042V82H188.357V73.1042H190.031ZM197.875 80.5869V77.7954C197.875 77.5946 197.843 77.4228 197.777 77.2799C197.711 77.1332 197.609 77.0193 197.47 76.9382C197.335 76.8571 197.159 76.8166 196.943 76.8166C196.758 76.8166 196.597 76.8494 196.462 76.9151C196.327 76.9768 196.223 77.0676 196.149 77.1873C196.076 77.3031 196.039 77.4402 196.039 77.5985H194.371C194.371 77.332 194.433 77.0792 194.557 76.8398C194.68 76.6004 194.86 76.39 195.095 76.2085C195.331 76.0232 195.611 75.8784 195.935 75.7741C196.263 75.6699 196.63 75.6178 197.036 75.6178C197.522 75.6178 197.954 75.6988 198.333 75.861C198.711 76.0232 199.009 76.2664 199.225 76.5907C199.445 76.9151 199.555 77.3205 199.555 77.8069V80.4884C199.555 80.832 199.576 81.1139 199.619 81.334C199.661 81.5502 199.723 81.7394 199.804 81.9015V82H198.119C198.037 81.8301 197.976 81.6178 197.933 81.3629C197.895 81.1042 197.875 80.8456 197.875 80.5869ZM198.095 78.1834L198.107 79.1274H197.175C196.954 79.1274 196.763 79.1525 196.601 79.2027C196.439 79.2529 196.306 79.3243 196.202 79.417C196.097 79.5058 196.02 79.61 195.97 79.7297C195.924 79.8494 195.9 79.9807 195.9 80.1236C195.9 80.2664 195.933 80.3958 195.999 80.5116C196.065 80.6236 196.159 80.7124 196.283 80.778C196.406 80.8398 196.551 80.8707 196.717 80.8707C196.968 80.8707 197.186 80.8205 197.371 80.7201C197.557 80.6197 197.7 80.4961 197.8 80.3494C197.904 80.2027 197.958 80.0637 197.962 79.9324L198.402 80.639C198.341 80.7973 198.256 80.9614 198.148 81.1313C198.043 81.3012 197.91 81.4614 197.748 81.612C197.586 81.7587 197.391 81.8803 197.163 81.9768C196.935 82.0695 196.665 82.1158 196.352 82.1158C195.954 82.1158 195.593 82.0367 195.269 81.8784C194.949 81.7162 194.694 81.4942 194.505 81.2124C194.319 80.9266 194.227 80.6023 194.227 80.2394C194.227 79.9112 194.288 79.6197 194.412 79.3649C194.536 79.11 194.717 78.8958 194.956 78.722C195.2 78.5444 195.503 78.4112 195.866 78.3224C196.229 78.2297 196.649 78.1834 197.128 78.1834H198.095ZM205.558 77.0714V82H203.89V75.7336H205.453L205.558 77.0714ZM205.314 78.6467H204.863C204.863 78.1834 204.923 77.7664 205.042 77.3958C205.162 77.0212 205.33 76.7027 205.546 76.4402C205.762 76.1737 206.019 75.971 206.316 75.832C206.618 75.6892 206.953 75.6178 207.324 75.6178C207.618 75.6178 207.886 75.6602 208.129 75.7452C208.372 75.8301 208.581 75.9653 208.755 76.1506C208.932 76.3359 209.067 76.5811 209.16 76.8861C209.256 77.1911 209.305 77.5637 209.305 78.0039V82H207.625V77.9981C207.625 77.7201 207.587 77.5039 207.509 77.3494C207.432 77.195 207.318 77.0869 207.168 77.0251C207.021 76.9595 206.84 76.9266 206.623 76.9266C206.399 76.9266 206.204 76.971 206.038 77.0598C205.876 77.1486 205.741 77.2722 205.633 77.4305C205.529 77.5849 205.45 77.7664 205.395 77.9749C205.341 78.1834 205.314 78.4073 205.314 78.6467ZM215.29 77.0714V82H213.622V75.7336H215.186L215.29 77.0714ZM215.047 78.6467H214.595C214.595 78.1834 214.655 77.7664 214.775 77.3958C214.894 77.0212 215.062 76.7027 215.279 76.4402C215.495 76.1737 215.752 75.971 216.049 75.832C216.35 75.6892 216.686 75.6178 217.057 75.6178C217.35 75.6178 217.618 75.6602 217.862 75.7452C218.105 75.8301 218.313 75.9653 218.487 76.1506C218.665 76.3359 218.8 76.5811 218.892 76.8861C218.989 77.1911 219.037 77.5637 219.037 78.0039V82H217.358V77.9981C217.358 77.7201 217.319 77.5039 217.242 77.3494C217.165 77.195 217.051 77.0869 216.9 77.0251C216.753 76.9595 216.572 76.9266 216.356 76.9266C216.132 76.9266 215.937 76.971 215.771 77.0598C215.609 77.1486 215.474 77.2722 215.365 77.4305C215.261 77.5849 215.182 77.7664 215.128 77.9749C215.074 78.1834 215.047 78.4073 215.047 78.6467ZM226.274 82.1158C225.787 82.1158 225.351 82.0386 224.965 81.8842C224.579 81.7259 224.25 81.5077 223.98 81.2297C223.714 80.9517 223.509 80.6293 223.366 80.2625C223.223 79.8919 223.152 79.4981 223.152 79.0811V78.8494C223.152 78.3745 223.22 77.9402 223.355 77.5463C223.49 77.1525 223.683 76.8108 223.934 76.5212C224.189 76.2317 224.498 76.0097 224.861 75.8552C225.223 75.6969 225.633 75.6178 226.088 75.6178C226.532 75.6178 226.926 75.6911 227.27 75.8378C227.613 75.9846 227.901 76.1931 228.133 76.4633C228.368 76.7336 228.546 77.0579 228.666 77.4363C228.785 77.8108 228.845 78.2278 228.845 78.6873V79.3822H223.864V78.2703H227.206V78.1429C227.206 77.9112 227.164 77.7046 227.079 77.5232C226.998 77.3378 226.874 77.1911 226.708 77.083C226.542 76.9749 226.33 76.9208 226.071 76.9208C225.851 76.9208 225.662 76.9691 225.503 77.0656C225.345 77.1622 225.216 77.2973 225.115 77.471C225.019 77.6448 224.945 77.8494 224.895 78.0849C224.849 78.3166 224.826 78.5714 224.826 78.8494V79.0811C224.826 79.332 224.861 79.5637 224.93 79.7761C225.003 79.9884 225.106 80.1718 225.237 80.3263C225.372 80.4807 225.534 80.6004 225.723 80.6853C225.916 80.7703 226.135 80.8127 226.378 80.8127C226.679 80.8127 226.959 80.7548 227.218 80.639C227.48 80.5193 227.706 80.3398 227.895 80.1004L228.706 80.9807C228.575 81.1699 228.395 81.3514 228.167 81.5251C227.944 81.6988 227.673 81.8417 227.357 81.9537C227.04 82.0618 226.679 82.1158 226.274 82.1158ZM234.547 77.1004V82H232.879V75.7336H234.448L234.547 77.1004ZM236.435 75.6931L236.406 77.2394C236.325 77.2278 236.226 77.2181 236.11 77.2104C235.998 77.1988 235.896 77.1931 235.803 77.1931C235.568 77.1931 235.363 77.2239 235.19 77.2857C235.02 77.3436 234.877 77.4305 234.761 77.5463C234.649 77.6622 234.564 77.8031 234.506 77.9691C234.452 78.1351 234.421 78.3243 234.413 78.5367L234.078 78.4324C234.078 78.027 234.118 77.6544 234.199 77.3147C234.28 76.971 234.398 76.6718 234.552 76.417C234.711 76.1622 234.904 75.9653 235.132 75.8263C235.359 75.6873 235.62 75.6178 235.913 75.6178C236.006 75.6178 236.101 75.6255 236.197 75.6409C236.294 75.6525 236.373 75.6699 236.435 75.6931ZM249.732 80.2683C249.732 80.1486 249.697 80.0405 249.628 79.944C249.558 79.8475 249.429 79.7587 249.24 79.6776C249.054 79.5927 248.786 79.5154 248.434 79.4459C248.118 79.3764 247.823 79.2896 247.548 79.1853C247.278 79.0772 247.043 78.9479 246.842 78.7973C246.645 78.6467 246.49 78.4691 246.378 78.2645C246.267 78.056 246.211 77.8185 246.211 77.5521C246.211 77.2896 246.267 77.0425 246.378 76.8108C246.494 76.5792 246.658 76.3745 246.871 76.1969C247.087 76.0154 247.35 75.8745 247.658 75.7741C247.971 75.6699 248.323 75.6178 248.712 75.6178C249.257 75.6178 249.724 75.7046 250.114 75.8784C250.508 76.0521 250.809 76.2915 251.017 76.5965C251.23 76.8977 251.336 77.2413 251.336 77.6274H249.668C249.668 77.4653 249.633 77.3205 249.564 77.1931C249.498 77.0618 249.394 76.9595 249.251 76.8861C249.112 76.8089 248.931 76.7703 248.707 76.7703C248.521 76.7703 248.361 76.8031 248.226 76.8687C248.091 76.9305 247.987 77.0154 247.913 77.1236C247.844 77.2278 247.809 77.3436 247.809 77.471C247.809 77.5676 247.828 77.6544 247.867 77.7317C247.909 77.805 247.977 77.8726 248.07 77.9344C248.162 77.9961 248.282 78.0541 248.429 78.1081C248.579 78.1583 248.765 78.2046 248.985 78.2471C249.436 78.3398 249.84 78.4614 250.195 78.612C250.55 78.7587 250.832 78.9595 251.041 79.2143C251.249 79.4653 251.353 79.7954 251.353 80.2046C251.353 80.4826 251.292 80.7375 251.168 80.9691C251.045 81.2008 250.867 81.4035 250.635 81.5772C250.404 81.7471 250.126 81.8803 249.801 81.9768C249.481 82.0695 249.12 82.1158 248.718 82.1158C248.135 82.1158 247.641 82.0116 247.236 81.8031C246.834 81.5946 246.529 81.3301 246.321 81.0097C246.116 80.6853 246.014 80.3533 246.014 80.0135H247.595C247.602 80.2413 247.66 80.4247 247.768 80.5637C247.88 80.7027 248.021 80.8031 248.191 80.8649C248.365 80.9266 248.552 80.9575 248.753 80.9575C248.969 80.9575 249.149 80.9286 249.292 80.8707C249.434 80.8089 249.543 80.7278 249.616 80.6274C249.693 80.5232 249.732 80.4035 249.732 80.2683ZM255.254 78.9305V78.8089C255.254 78.3494 255.32 77.9266 255.451 77.5405C255.582 77.1506 255.773 76.8127 256.024 76.527C256.275 76.2413 256.584 76.0193 256.951 75.861C257.318 75.6988 257.738 75.6178 258.213 75.6178C258.688 75.6178 259.111 75.6988 259.482 75.861C259.852 76.0193 260.163 76.2413 260.414 76.527C260.669 76.8127 260.862 77.1506 260.993 77.5405C261.125 77.9266 261.19 78.3494 261.19 78.8089V78.9305C261.19 79.3861 261.125 79.8089 260.993 80.1988C260.862 80.5849 260.669 80.9228 260.414 81.2124C260.163 81.4981 259.854 81.7201 259.487 81.8784C259.121 82.0367 258.7 82.1158 258.225 82.1158C257.75 82.1158 257.327 82.0367 256.957 81.8784C256.59 81.7201 256.279 81.4981 256.024 81.2124C255.773 80.9228 255.582 80.5849 255.451 80.1988C255.32 79.8089 255.254 79.3861 255.254 78.9305ZM256.922 78.8089V78.9305C256.922 79.1931 256.945 79.4382 256.991 79.666C257.038 79.8938 257.111 80.0946 257.211 80.2683C257.316 80.4382 257.451 80.5714 257.617 80.668C257.783 80.7645 257.986 80.8127 258.225 80.8127C258.457 80.8127 258.655 80.7645 258.821 80.668C258.987 80.5714 259.121 80.4382 259.221 80.2683C259.321 80.0946 259.395 79.8938 259.441 79.666C259.491 79.4382 259.516 79.1931 259.516 78.9305V78.8089C259.516 78.5541 259.491 78.3147 259.441 78.0907C259.395 77.8629 259.32 77.6622 259.215 77.4884C259.115 77.3108 258.982 77.1718 258.816 77.0714C258.65 76.971 258.449 76.9208 258.213 76.9208C257.978 76.9208 257.777 76.971 257.611 77.0714C257.449 77.1718 257.316 77.3108 257.211 77.4884C257.111 77.6622 257.038 77.8629 256.991 78.0907C256.945 78.3147 256.922 78.5541 256.922 78.8089ZM267.06 73.1042V82H265.386V73.1042H267.06ZM275.229 80.5V75.7336H276.896V82H275.327L275.229 80.5ZM275.414 79.2143L275.906 79.2027C275.906 79.6197 275.858 80.0077 275.761 80.3668C275.665 80.722 275.52 81.0309 275.327 81.2934C275.134 81.5521 274.891 81.7548 274.597 81.9015C274.304 82.0444 273.958 82.1158 273.561 82.1158C273.256 82.1158 272.974 82.0734 272.715 81.9884C272.46 81.8996 272.24 81.7625 272.055 81.5772C271.873 81.388 271.73 81.1467 271.626 80.8533C271.526 80.556 271.476 80.1988 271.476 79.7819V75.7336H273.144V79.7934C273.144 79.9788 273.165 80.1351 273.207 80.2625C273.254 80.39 273.317 80.4942 273.398 80.5753C273.479 80.6564 273.574 80.7143 273.682 80.749C273.794 80.7838 273.918 80.8012 274.053 80.8012C274.396 80.8012 274.667 80.7317 274.864 80.5927C275.064 80.4537 275.205 80.2645 275.286 80.0251C275.371 79.7819 275.414 79.5116 275.414 79.2143ZM284.324 75.7336V76.9151H280.675V75.7336H284.324ZM281.579 74.1873H283.247V80.112C283.247 80.2934 283.27 80.4324 283.316 80.529C283.366 80.6255 283.44 80.6931 283.536 80.7317C283.633 80.7664 283.754 80.7838 283.901 80.7838C284.005 80.7838 284.098 80.7799 284.179 80.7722C284.264 80.7606 284.336 80.749 284.393 80.7375L284.399 81.9653C284.256 82.0116 284.102 82.0483 283.936 82.0753C283.77 82.1023 283.587 82.1158 283.386 82.1158C283.019 82.1158 282.698 82.056 282.424 81.9363C282.154 81.8127 281.946 81.6158 281.799 81.3456C281.652 81.0753 281.579 80.7201 281.579 80.2799V74.1873ZM290.118 75.7336V82H288.445V75.7336H290.118ZM288.34 74.1004C288.34 73.8571 288.425 73.6564 288.595 73.4981C288.765 73.3398 288.993 73.2606 289.278 73.2606C289.56 73.2606 289.786 73.3398 289.956 73.4981C290.13 73.6564 290.217 73.8571 290.217 74.1004C290.217 74.3436 290.13 74.5444 289.956 74.7027C289.786 74.861 289.56 74.9402 289.278 74.9402C288.993 74.9402 288.765 74.861 288.595 74.7027C288.425 74.5444 288.34 74.3436 288.34 74.1004ZM294.314 78.9305V78.8089C294.314 78.3494 294.38 77.9266 294.511 77.5405C294.642 77.1506 294.833 76.8127 295.084 76.527C295.335 76.2413 295.644 76.0193 296.011 75.861C296.378 75.6988 296.799 75.6178 297.274 75.6178C297.748 75.6178 298.171 75.6988 298.542 75.861C298.913 76.0193 299.223 76.2413 299.474 76.527C299.729 76.8127 299.922 77.1506 300.053 77.5405C300.185 77.9266 300.25 78.3494 300.25 78.8089V78.9305C300.25 79.3861 300.185 79.8089 300.053 80.1988C299.922 80.5849 299.729 80.9228 299.474 81.2124C299.223 81.4981 298.914 81.7201 298.548 81.8784C298.181 82.0367 297.76 82.1158 297.285 82.1158C296.81 82.1158 296.387 82.0367 296.017 81.8784C295.65 81.7201 295.339 81.4981 295.084 81.2124C294.833 80.9228 294.642 80.5849 294.511 80.1988C294.38 79.8089 294.314 79.3861 294.314 78.9305ZM295.982 78.8089V78.9305C295.982 79.1931 296.005 79.4382 296.052 79.666C296.098 79.8938 296.171 80.0946 296.272 80.2683C296.376 80.4382 296.511 80.5714 296.677 80.668C296.843 80.7645 297.046 80.8127 297.285 80.8127C297.517 80.8127 297.716 80.7645 297.882 80.668C298.048 80.5714 298.181 80.4382 298.281 80.2683C298.382 80.0946 298.455 79.8938 298.501 79.666C298.552 79.4382 298.577 79.1931 298.577 78.9305V78.8089C298.577 78.5541 298.552 78.3147 298.501 78.0907C298.455 77.8629 298.38 77.6622 298.275 77.4884C298.175 77.3108 298.042 77.1718 297.876 77.0714C297.71 76.971 297.509 76.9208 297.274 76.9208C297.038 76.9208 296.837 76.971 296.671 77.0714C296.509 77.1718 296.376 77.3108 296.272 77.4884C296.171 77.6622 296.098 77.8629 296.052 78.0907C296.005 78.3147 295.982 78.5541 295.982 78.8089ZM305.993 77.0714V82H304.325V75.7336H305.888L305.993 77.0714ZM305.749 78.6467H305.298C305.298 78.1834 305.357 77.7664 305.477 77.3958C305.597 77.0212 305.765 76.7027 305.981 76.4402C306.197 76.1737 306.454 75.971 306.751 75.832C307.052 75.6892 307.388 75.6178 307.759 75.6178C308.052 75.6178 308.321 75.6602 308.564 75.7452C308.807 75.8301 309.016 75.9653 309.189 76.1506C309.367 76.3359 309.502 76.5811 309.595 76.8861C309.691 77.1911 309.74 77.5637 309.74 78.0039V82H308.06V77.9981C308.06 77.7201 308.022 77.5039 307.944 77.3494C307.867 77.195 307.753 77.0869 307.603 77.0251C307.456 76.9595 307.274 76.9266 307.058 76.9266C306.834 76.9266 306.639 76.971 306.473 77.0598C306.311 77.1486 306.176 77.2722 306.068 77.4305C305.964 77.5849 305.884 77.7664 305.83 77.9749C305.776 78.1834 305.749 78.4073 305.749 78.6467Z" fill="#626262"/>
<defs>
<linearGradient id="paint0_linear_106_89" x1="44.5558" y1="24.6362" x2="102.573" y2="80.8738" gradientUnits="userSpaceOnUse">
<stop stop-color="#8DC122"/>
<stop offset="1" stop-color="#709A1B"/>
</linearGradient>
<linearGradient id="paint1_linear_106_89" x1="44.7296" y1="72.5692" x2="101.551" y2="14.8257" gradientUnits="userSpaceOnUse">
<stop stop-color="#8DC122"/>
<stop offset="0.602664" stop-color="#7CA91E"/>
<stop offset="1" stop-color="#709A1B"/>
</linearGradient>
<linearGradient id="paint2_linear_106_89" x1="71.5688" y1="26.3001" x2="39.4216" y2="68.528" gradientUnits="userSpaceOnUse">
<stop stop-color="#8DC122"/>
<stop offset="0.602664" stop-color="#7CA91E"/>
<stop offset="1" stop-color="#709A1B"/>
</linearGradient>
<linearGradient id="paint3_linear_106_89" x1="84.8184" y1="30.5582" x2="31.8617" y2="43.679" gradientUnits="userSpaceOnUse">
<stop stop-color="#8DC122"/>
<stop offset="1" stop-color="#709A1B"/>
</linearGradient>
<linearGradient id="paint4_linear_106_89" x1="46.0117" y1="17.4249" x2="46.0117" y2="62.5008" gradientUnits="userSpaceOnUse">
<stop stop-color="#8DC122"/>
<stop offset="0.602664" stop-color="#7CA91E"/>
<stop offset="1" stop-color="#709A1B"/>
</linearGradient>
<linearGradient id="paint5_linear_106_89" x1="31.7979" y1="17.3766" x2="60.7453" y2="61.2279" gradientUnits="userSpaceOnUse">
<stop stop-color="#8DC122"/>
<stop offset="0.602664" stop-color="#7CA91E"/>
<stop offset="1" stop-color="#709A1B"/>
</linearGradient>
<linearGradient id="paint6_linear_106_89" x1="45.1142" y1="73.5785" x2="64.1347" y2="88.2083" gradientUnits="userSpaceOnUse">
<stop stop-color="#8DC122"/>
<stop offset="0.602664" stop-color="#7CA91E"/>
<stop offset="1" stop-color="#709A1B"/>
</linearGradient>
<linearGradient id="paint7_linear_106_89" x1="36.5111" y1="15.5018" x2="36.1532" y2="61.8535" gradientUnits="userSpaceOnUse">
<stop stop-color="#03A0E3"/>
<stop offset="1" stop-color="#027FB5"/>
</linearGradient>
<linearGradient id="paint8_linear_106_89" x1="69.861" y1="48.1197" x2="23.1459" y2="48.1197" gradientUnits="userSpaceOnUse">
<stop stop-color="#03A0E3"/>
<stop offset="1" stop-color="#027FB5"/>
</linearGradient>
<linearGradient id="paint9_linear_106_89" x1="11.3442" y1="35.542" x2="58.5542" y2="46.1702" gradientUnits="userSpaceOnUse">
<stop stop-color="#03A0E3"/>
<stop offset="1" stop-color="#027FB5"/>
</linearGradient>
<linearGradient id="paint10_linear_106_89" x1="22.9606" y1="25.9421" x2="52.5563" y2="69.8199" gradientUnits="userSpaceOnUse">
<stop stop-color="#03A0E3"/>
<stop offset="1" stop-color="#027FB5"/>
</linearGradient>
<linearGradient id="paint11_linear_106_89" x1="71.5267" y1="38.8057" x2="71.4739" y2="49.8705" gradientUnits="userSpaceOnUse">
<stop stop-color="#03A0E3"/>
<stop offset="1" stop-color="#027FB5"/>
</linearGradient>
<linearGradient id="paint12_linear_106_89" x1="61.5015" y1="27.2147" x2="51.512" y2="43.5194" gradientUnits="userSpaceOnUse">
<stop stop-color="#03A0E3"/>
<stop offset="1" stop-color="#027FB5"/>
</linearGradient>
</defs>
</svg>
