<svg 
  width="1636" 
  height="398" 
  viewBox="0 0 1636 398" 
  fill="none" 
  xmlns="http://www.w3.org/2000/svg"
>
  <path fill="#3B3B3B" d="M601.78 260.06C588.297 260.06 575.839 257.841 564.404 253.404C553.14 248.796 543.327 242.396 534.964 234.204C526.772 225.841 520.372 216.028 515.764 204.764C511.327 193.329 509.108 180.871 509.108 167.388C509.108 154.076 511.412 141.788 516.02 130.524C520.799 119.26 527.455 109.447 535.988 101.084C544.521 92.7213 554.505 86.236 565.94 81.628C577.545 77.02 590.089 74.716 603.572 74.716C612.105 74.716 620.468 75.8253 628.66 78.044C636.852 80.2627 644.447 83.5907 651.444 88.028C658.612 92.2947 664.756 97.5 669.876 103.644L642.996 134.108C637.705 128.305 631.732 123.783 625.076 120.54C618.591 117.297 611.337 115.676 603.316 115.676C596.489 115.676 590.004 116.871 583.86 119.26C577.887 121.649 572.681 125.148 568.244 129.756C563.807 134.364 560.308 139.825 557.748 146.14C555.188 152.455 553.908 159.623 553.908 167.644C553.908 175.495 555.103 182.663 557.492 189.148C560.052 195.463 563.636 200.924 568.244 205.532C573.023 209.969 578.655 213.383 585.14 215.772C591.796 218.161 599.135 219.356 607.156 219.356C612.447 219.356 617.481 218.673 622.26 217.308C627.209 215.772 631.817 213.639 636.084 210.908C640.351 208.177 644.02 205.105 647.092 201.692L668.34 235.484C664.244 240.092 658.612 244.273 651.444 248.028C644.447 251.783 636.596 254.769 627.892 256.988C619.359 259.036 610.655 260.06 601.78 260.06ZM766.224 257.5V174.044C766.224 167.047 764.261 161.927 760.336 158.684C756.581 155.271 751.291 153.564 744.464 153.564C737.808 153.564 731.835 154.844 726.544 157.404C721.424 159.793 716.475 163.804 711.696 169.436L687.12 145.628C695.312 137.265 704.699 130.695 715.28 125.916C725.861 121.137 737.381 118.748 749.84 118.748C761.275 118.748 771.173 120.455 779.536 123.868C787.899 127.281 794.384 132.487 798.992 139.484C803.6 146.481 805.904 155.356 805.904 166.108V257.5H766.224ZM730.896 260.06C722.363 260.06 714.597 258.353 707.6 254.94C700.773 251.527 695.312 246.833 691.216 240.86C687.291 234.716 685.328 227.548 685.328 219.356C685.328 212.359 686.608 206.215 689.168 200.924C691.728 195.633 695.483 191.281 700.432 187.868C705.552 184.284 711.867 181.639 719.376 179.932C727.056 178.055 735.931 177.116 746 177.116H787.216L784.912 202.972H747.024C743.44 202.972 740.283 203.313 737.552 203.996C734.821 204.508 732.517 205.447 730.64 206.812C728.763 208.007 727.312 209.457 726.288 211.164C725.435 212.871 725.008 214.919 725.008 217.308C725.008 219.868 725.691 222.087 727.056 223.964C728.421 225.841 730.213 227.292 732.432 228.316C734.821 229.34 737.552 229.852 740.624 229.852C745.061 229.852 749.243 229.169 753.168 227.804C757.264 226.268 760.848 224.135 763.92 221.404C767.163 218.673 769.723 215.516 771.6 211.932L778.768 230.364C775.184 236.167 770.832 241.287 765.712 245.724C760.763 250.161 755.301 253.66 749.328 256.22C743.525 258.78 737.381 260.06 730.896 260.06ZM838.776 257.5V121.564H877.944L879.736 165.852L872.056 157.148C874.275 149.98 877.688 143.495 882.296 137.692C886.904 131.889 892.365 127.281 898.68 123.868C905.165 120.455 911.907 118.748 918.904 118.748C921.976 118.748 924.792 119.004 927.352 119.516C930.083 119.857 932.472 120.455 934.52 121.308L923.512 166.62C921.635 165.596 919.075 164.743 915.832 164.06C912.76 163.207 909.517 162.78 906.104 162.78C902.349 162.78 898.851 163.463 895.608 164.828C892.536 166.023 889.805 167.815 887.416 170.204C885.197 172.593 883.405 175.409 882.04 178.652C880.845 181.895 880.248 185.564 880.248 189.66V257.5H838.776ZM1014.54 260.06C999.525 260.06 986.384 257.073 975.12 251.1C964.027 245.127 955.408 236.935 949.264 226.524C943.291 215.943 940.304 203.911 940.304 190.428C940.304 179.847 942.011 170.204 945.424 161.5C948.837 152.625 953.616 145.031 959.76 138.716C966.075 132.401 973.413 127.537 981.776 124.124C990.309 120.54 999.611 118.748 1009.68 118.748C1019.24 118.748 1027.94 120.455 1035.79 123.868C1043.64 127.281 1050.47 132.06 1056.27 138.204C1062.07 144.348 1066.51 151.601 1069.58 159.964C1072.66 168.327 1074.11 177.457 1073.94 187.356L1073.68 198.62H965.648L959.504 175.324H1040.14L1035.79 179.932V174.812C1035.45 170.545 1034.09 166.876 1031.7 163.804C1029.48 160.561 1026.49 158.001 1022.74 156.124C1019.15 154.247 1015.06 153.308 1010.45 153.308C1003.62 153.308 997.819 154.673 993.04 157.404C988.432 159.964 984.933 163.719 982.544 168.668C980.155 173.617 978.96 179.761 978.96 187.1C978.96 194.439 980.496 200.924 983.568 206.556C986.811 212.188 991.419 216.54 997.392 219.612C1003.54 222.684 1010.79 224.22 1019.15 224.22C1024.78 224.22 1029.9 223.367 1034.51 221.66C1039.12 219.953 1044.07 217.052 1049.36 212.956L1068.56 240.092C1063.27 244.529 1057.64 248.284 1051.66 251.356C1045.69 254.257 1039.55 256.391 1033.23 257.756C1027.09 259.292 1020.86 260.06 1014.54 260.06ZM1104.12 257.5V78.3H1181.69C1192.95 78.3 1203.02 80.86 1211.9 85.98C1220.77 91.1 1227.77 98.0973 1232.89 106.972C1238.01 115.676 1240.57 125.66 1240.57 136.924C1240.57 148.359 1238.01 158.684 1232.89 167.9C1227.77 177.116 1220.77 184.369 1211.9 189.66C1203.02 194.951 1192.95 197.596 1181.69 197.596H1147.9V257.5H1104.12ZM1147.39 158.94H1175.8C1179.56 158.94 1182.88 158.087 1185.79 156.38C1188.86 154.503 1191.33 151.943 1193.21 148.7C1195.09 145.457 1196.03 141.788 1196.03 137.692C1196.03 133.425 1195.09 129.756 1193.21 126.684C1191.33 123.612 1188.86 121.223 1185.79 119.516C1182.88 117.809 1179.56 116.956 1175.8 116.956H1147.39V158.94ZM1269.53 257.5V68.06H1310.74V257.5H1269.53ZM1417.22 257.5V174.044C1417.22 167.047 1415.26 161.927 1411.34 158.684C1407.58 155.271 1402.29 153.564 1395.46 153.564C1388.81 153.564 1382.83 154.844 1377.54 157.404C1372.42 159.793 1367.47 163.804 1362.7 169.436L1338.12 145.628C1346.31 137.265 1355.7 130.695 1366.28 125.916C1376.86 121.137 1388.38 118.748 1400.84 118.748C1412.27 118.748 1422.17 120.455 1430.54 123.868C1438.9 127.281 1445.38 132.487 1449.99 139.484C1454.6 146.481 1456.9 155.356 1456.9 166.108V257.5H1417.22ZM1381.9 260.06C1373.36 260.06 1365.6 258.353 1358.6 254.94C1351.77 251.527 1346.31 246.833 1342.22 240.86C1338.29 234.716 1336.33 227.548 1336.33 219.356C1336.33 212.359 1337.61 206.215 1340.17 200.924C1342.73 195.633 1346.48 191.281 1351.43 187.868C1356.55 184.284 1362.87 181.639 1370.38 179.932C1378.06 178.055 1386.93 177.116 1397 177.116H1438.22L1435.91 202.972H1398.02C1394.44 202.972 1391.28 203.313 1388.55 203.996C1385.82 204.508 1383.52 205.447 1381.64 206.812C1379.76 208.007 1378.31 209.457 1377.29 211.164C1376.43 212.871 1376.01 214.919 1376.01 217.308C1376.01 219.868 1376.69 222.087 1378.06 223.964C1379.42 225.841 1381.21 227.292 1383.43 228.316C1385.82 229.34 1388.55 229.852 1391.62 229.852C1396.06 229.852 1400.24 229.169 1404.17 227.804C1408.26 226.268 1411.85 224.135 1414.92 221.404C1418.16 218.673 1420.72 215.516 1422.6 211.932L1429.77 230.364C1426.18 236.167 1421.83 241.287 1416.71 245.724C1411.76 250.161 1406.3 253.66 1400.33 256.22C1394.53 258.78 1388.38 260.06 1381.9 260.06ZM1489.78 257.5V121.564H1528.94L1530.48 149.212L1522.03 152.284C1523.91 146.14 1527.24 140.593 1532.02 135.644C1536.97 130.524 1542.85 126.428 1549.68 123.356C1556.51 120.284 1563.67 118.748 1571.18 118.748C1581.42 118.748 1590.04 120.881 1597.04 125.148C1604.04 129.244 1609.24 135.473 1612.66 143.836C1616.24 152.028 1618.03 162.183 1618.03 174.3V257.5H1576.82V177.372C1576.82 171.911 1576.05 167.388 1574.51 163.804C1572.98 160.22 1570.67 157.575 1567.6 155.868C1564.53 154.161 1560.69 153.393 1556.08 153.564C1552.5 153.564 1549.17 154.161 1546.1 155.356C1543.02 156.38 1540.29 158.001 1537.9 160.22C1535.69 162.268 1533.98 164.657 1532.78 167.388C1531.59 170.119 1530.99 173.191 1530.99 176.604V257.5H1510.26C1505.82 257.5 1501.81 257.5 1498.22 257.5C1494.81 257.5 1491.99 257.5 1489.78 257.5Z"/>
  <path fill="#3B3B3B" d="M528.865 335H536.803L548.49 368.406L560.178 335H568.115L551.678 380.5H545.303L528.865 335ZM524.584 335H532.49L533.928 367.562V380.5H524.584V335ZM564.49 335H572.428V380.5H563.053V367.562L564.49 335ZM612.286 381.125C609.661 381.125 607.307 380.708 605.224 379.875C603.141 379.021 601.37 377.844 599.911 376.344C598.474 374.844 597.37 373.104 596.599 371.125C595.828 369.125 595.443 367 595.443 364.75V363.5C595.443 360.938 595.807 358.594 596.536 356.469C597.266 354.344 598.307 352.5 599.661 350.938C601.036 349.375 602.703 348.177 604.661 347.344C606.62 346.49 608.828 346.062 611.286 346.062C613.682 346.062 615.807 346.458 617.661 347.25C619.516 348.042 621.068 349.167 622.318 350.625C623.588 352.083 624.547 353.833 625.193 355.875C625.838 357.896 626.161 360.146 626.161 362.625V366.375H599.286V360.375H617.318V359.688C617.318 358.438 617.088 357.323 616.63 356.344C616.193 355.344 615.526 354.552 614.63 353.969C613.734 353.385 612.588 353.094 611.193 353.094C610.005 353.094 608.984 353.354 608.13 353.875C607.276 354.396 606.578 355.125 606.036 356.062C605.516 357 605.12 358.104 604.849 359.375C604.599 360.625 604.474 362 604.474 363.5V364.75C604.474 366.104 604.661 367.354 605.036 368.5C605.432 369.646 605.984 370.635 606.693 371.469C607.422 372.302 608.297 372.948 609.318 373.406C610.359 373.865 611.536 374.094 612.849 374.094C614.474 374.094 615.984 373.781 617.38 373.156C618.797 372.51 620.016 371.542 621.036 370.25L625.411 375C624.703 376.021 623.734 377 622.505 377.938C621.297 378.875 619.838 379.646 618.13 380.25C616.422 380.833 614.474 381.125 612.286 381.125ZM667.895 373.125V332.5H676.958V380.5H668.801L667.895 373.125ZM646.52 364V363.344C646.52 360.76 646.812 358.417 647.395 356.312C647.978 354.188 648.833 352.365 649.958 350.844C651.083 349.323 652.468 348.146 654.114 347.312C655.76 346.479 657.635 346.062 659.739 346.062C661.718 346.062 663.447 346.479 664.926 347.312C666.426 348.146 667.697 349.333 668.739 350.875C669.801 352.396 670.656 354.198 671.301 356.281C671.947 358.344 672.416 360.604 672.708 363.062V364.5C672.416 366.854 671.947 369.042 671.301 371.062C670.656 373.083 669.801 374.854 668.739 376.375C667.697 377.875 666.426 379.042 664.926 379.875C663.426 380.708 661.676 381.125 659.676 381.125C657.572 381.125 655.697 380.698 654.051 379.844C652.426 378.99 651.051 377.792 649.926 376.25C648.822 374.708 647.978 372.896 647.395 370.812C646.812 368.729 646.52 366.458 646.52 364ZM655.52 363.344V364C655.52 365.396 655.624 366.698 655.833 367.906C656.062 369.115 656.426 370.188 656.926 371.125C657.447 372.042 658.114 372.76 658.926 373.281C659.76 373.781 660.77 374.031 661.958 374.031C663.499 374.031 664.77 373.688 665.77 373C666.77 372.292 667.531 371.323 668.051 370.094C668.593 368.865 668.906 367.448 668.989 365.844V361.75C668.926 360.438 668.739 359.26 668.426 358.219C668.135 357.156 667.697 356.25 667.114 355.5C666.551 354.75 665.843 354.167 664.989 353.75C664.156 353.333 663.166 353.125 662.02 353.125C660.853 353.125 659.853 353.396 659.02 353.938C658.187 354.458 657.51 355.177 656.989 356.094C656.489 357.01 656.114 358.094 655.864 359.344C655.635 360.573 655.52 361.906 655.52 363.344ZM710.129 346.688V380.5H701.098V346.688H710.129ZM700.535 337.875C700.535 336.562 700.993 335.479 701.91 334.625C702.827 333.771 704.056 333.344 705.598 333.344C707.118 333.344 708.337 333.771 709.254 334.625C710.191 335.479 710.66 336.562 710.66 337.875C710.66 339.188 710.191 340.271 709.254 341.125C708.337 341.979 707.118 342.406 705.598 342.406C704.056 342.406 702.827 341.979 701.91 341.125C700.993 340.271 700.535 339.188 700.535 337.875ZM748.175 374.094C749.279 374.094 750.258 373.885 751.113 373.469C751.967 373.031 752.633 372.427 753.113 371.656C753.613 370.865 753.873 369.938 753.894 368.875H762.363C762.342 371.25 761.706 373.365 760.456 375.219C759.206 377.052 757.529 378.5 755.425 379.562C753.321 380.604 750.967 381.125 748.363 381.125C745.738 381.125 743.446 380.688 741.488 379.812C739.55 378.938 737.936 377.729 736.644 376.188C735.352 374.625 734.383 372.812 733.738 370.75C733.092 368.667 732.769 366.438 732.769 364.062V363.156C732.769 360.76 733.092 358.531 733.738 356.469C734.383 354.385 735.352 352.573 736.644 351.031C737.936 349.469 739.55 348.25 741.488 347.375C743.425 346.5 745.696 346.062 748.3 346.062C751.071 346.062 753.498 346.594 755.581 347.656C757.686 348.719 759.331 350.24 760.519 352.219C761.727 354.177 762.342 356.5 762.363 359.188H753.894C753.873 358.062 753.633 357.042 753.175 356.125C752.738 355.208 752.092 354.479 751.238 353.938C750.404 353.375 749.373 353.094 748.144 353.094C746.831 353.094 745.758 353.375 744.925 353.938C744.092 354.479 743.446 355.229 742.988 356.188C742.529 357.125 742.206 358.198 742.019 359.406C741.852 360.594 741.769 361.844 741.769 363.156V364.062C741.769 365.375 741.852 366.635 742.019 367.844C742.186 369.052 742.498 370.125 742.956 371.062C743.436 372 744.092 372.74 744.925 373.281C745.758 373.823 746.842 374.094 748.175 374.094ZM802.471 372.875V357.812C802.471 356.729 802.294 355.802 801.94 355.031C801.586 354.24 801.034 353.625 800.284 353.188C799.555 352.75 798.607 352.531 797.44 352.531C796.44 352.531 795.576 352.708 794.846 353.062C794.117 353.396 793.555 353.885 793.159 354.531C792.763 355.156 792.565 355.896 792.565 356.75H783.565C783.565 355.312 783.898 353.948 784.565 352.656C785.232 351.365 786.201 350.229 787.471 349.25C788.742 348.25 790.253 347.469 792.003 346.906C793.773 346.344 795.753 346.062 797.94 346.062C800.565 346.062 802.898 346.5 804.94 347.375C806.982 348.25 808.586 349.562 809.753 351.312C810.94 353.062 811.534 355.25 811.534 357.875V372.344C811.534 374.198 811.648 375.719 811.878 376.906C812.107 378.073 812.44 379.094 812.878 379.969V380.5H803.784C803.346 379.583 803.013 378.438 802.784 377.062C802.576 375.667 802.471 374.271 802.471 372.875ZM803.659 359.906L803.721 365H798.69C797.503 365 796.471 365.135 795.596 365.406C794.721 365.677 794.003 366.062 793.44 366.562C792.878 367.042 792.461 367.604 792.19 368.25C791.94 368.896 791.815 369.604 791.815 370.375C791.815 371.146 791.992 371.844 792.346 372.469C792.701 373.073 793.211 373.552 793.878 373.906C794.544 374.24 795.326 374.406 796.221 374.406C797.576 374.406 798.753 374.135 799.753 373.594C800.753 373.052 801.523 372.385 802.065 371.594C802.628 370.802 802.919 370.052 802.94 369.344L805.315 373.156C804.982 374.01 804.523 374.896 803.94 375.812C803.378 376.729 802.659 377.594 801.784 378.406C800.909 379.198 799.857 379.854 798.628 380.375C797.398 380.875 795.94 381.125 794.253 381.125C792.107 381.125 790.159 380.698 788.409 379.844C786.68 378.969 785.305 377.771 784.284 376.25C783.284 374.708 782.784 372.958 782.784 371C782.784 369.229 783.117 367.656 783.784 366.281C784.451 364.906 785.43 363.75 786.721 362.812C788.034 361.854 789.669 361.135 791.628 360.656C793.586 360.156 795.857 359.906 798.44 359.906H803.659ZM844.611 332.5V380.5H835.58V332.5H844.611ZM910.266 353.188V393.5H901.266V346.688H909.61L910.266 353.188ZM931.673 363.219V363.875C931.673 366.333 931.381 368.615 930.798 370.719C930.235 372.823 929.402 374.656 928.298 376.219C927.193 377.76 925.818 378.969 924.173 379.844C922.548 380.698 920.673 381.125 918.548 381.125C916.485 381.125 914.693 380.708 913.173 379.875C911.652 379.042 910.371 377.875 909.329 376.375C908.308 374.854 907.485 373.094 906.86 371.094C906.235 369.094 905.756 366.948 905.423 364.656V362.938C905.756 360.479 906.235 358.229 906.86 356.188C907.485 354.125 908.308 352.344 909.329 350.844C910.371 349.323 911.641 348.146 913.141 347.312C914.662 346.479 916.443 346.062 918.485 346.062C920.631 346.062 922.516 346.469 924.141 347.281C925.787 348.094 927.162 349.26 928.266 350.781C929.391 352.302 930.235 354.115 930.798 356.219C931.381 358.323 931.673 360.656 931.673 363.219ZM922.641 363.875V363.219C922.641 361.781 922.516 360.458 922.266 359.25C922.037 358.021 921.662 356.948 921.141 356.031C920.641 355.115 919.975 354.406 919.141 353.906C918.329 353.385 917.339 353.125 916.173 353.125C914.943 353.125 913.891 353.323 913.016 353.719C912.162 354.115 911.464 354.688 910.923 355.438C910.381 356.188 909.975 357.083 909.704 358.125C909.433 359.167 909.266 360.344 909.204 361.656V366C909.308 367.542 909.6 368.927 910.079 370.156C910.558 371.365 911.298 372.323 912.298 373.031C913.298 373.74 914.61 374.094 916.235 374.094C917.423 374.094 918.423 373.833 919.235 373.312C920.048 372.771 920.704 372.031 921.204 371.094C921.725 370.156 922.089 369.073 922.298 367.844C922.527 366.615 922.641 365.292 922.641 363.875ZM963.406 332.5V380.5H954.375V332.5H963.406ZM1005.73 372.875V357.812C1005.73 356.729 1005.56 355.802 1005.2 355.031C1004.85 354.24 1004.3 353.625 1003.55 353.188C1002.82 352.75 1001.87 352.531 1000.7 352.531C999.703 352.531 998.838 352.708 998.109 353.062C997.38 353.396 996.817 353.885 996.421 354.531C996.026 355.156 995.828 355.896 995.828 356.75H986.828C986.828 355.312 987.161 353.948 987.828 352.656C988.494 351.365 989.463 350.229 990.734 349.25C992.005 348.25 993.515 347.469 995.265 346.906C997.036 346.344 999.015 346.062 1001.2 346.062C1003.83 346.062 1006.16 346.5 1008.2 347.375C1010.24 348.25 1011.85 349.562 1013.02 351.312C1014.2 353.062 1014.8 355.25 1014.8 357.875V372.344C1014.8 374.198 1014.91 375.719 1015.14 376.906C1015.37 378.073 1015.7 379.094 1016.14 379.969V380.5H1007.05C1006.61 379.583 1006.28 378.438 1006.05 377.062C1005.84 375.667 1005.73 374.271 1005.73 372.875ZM1006.92 359.906L1006.98 365H1001.95C1000.77 365 999.734 365.135 998.859 365.406C997.984 365.677 997.265 366.062 996.703 366.562C996.14 367.042 995.723 367.604 995.453 368.25C995.203 368.896 995.078 369.604 995.078 370.375C995.078 371.146 995.255 371.844 995.609 372.469C995.963 373.073 996.473 373.552 997.14 373.906C997.807 374.24 998.588 374.406 999.484 374.406C1000.84 374.406 1002.02 374.135 1003.02 373.594C1004.02 373.052 1004.79 372.385 1005.33 371.594C1005.89 370.802 1006.18 370.052 1006.2 369.344L1008.58 373.156C1008.24 374.01 1007.79 374.896 1007.2 375.812C1006.64 376.729 1005.92 377.594 1005.05 378.406C1004.17 379.198 1003.12 379.854 1001.89 380.375C1000.66 380.875 999.203 381.125 997.515 381.125C995.369 381.125 993.421 380.698 991.671 379.844C989.942 378.969 988.567 377.771 987.546 376.25C986.546 374.708 986.046 372.958 986.046 371C986.046 369.229 986.38 367.656 987.046 366.281C987.713 364.906 988.692 363.75 989.984 362.812C991.296 361.854 992.932 361.135 994.89 360.656C996.848 360.156 999.119 359.906 1001.7 359.906H1006.92ZM1047.19 353.906V380.5H1038.19V346.688H1046.62L1047.19 353.906ZM1045.87 362.406H1043.44C1043.44 359.906 1043.76 357.656 1044.41 355.656C1045.05 353.635 1045.96 351.917 1047.12 350.5C1048.29 349.062 1049.68 347.969 1051.28 347.219C1052.91 346.448 1054.72 346.062 1056.72 346.062C1058.3 346.062 1059.75 346.292 1061.06 346.75C1062.37 347.208 1063.5 347.938 1064.44 348.938C1065.39 349.938 1066.12 351.26 1066.62 352.906C1067.14 354.552 1067.41 356.562 1067.41 358.938V380.5H1058.34V358.906C1058.34 357.406 1058.13 356.24 1057.72 355.406C1057.3 354.573 1056.69 353.99 1055.87 353.656C1055.08 353.302 1054.1 353.125 1052.94 353.125C1051.73 353.125 1050.68 353.365 1049.78 353.844C1048.91 354.323 1048.18 354.99 1047.59 355.844C1047.03 356.677 1046.6 357.656 1046.31 358.781C1046.02 359.906 1045.87 361.115 1045.87 362.406ZM1099.7 353.906V380.5H1090.7V346.688H1099.14L1099.7 353.906ZM1098.39 362.406H1095.95C1095.95 359.906 1096.27 357.656 1096.92 355.656C1097.57 353.635 1098.47 351.917 1099.64 350.5C1100.81 349.062 1102.19 347.969 1103.8 347.219C1105.42 346.448 1107.23 346.062 1109.23 346.062C1110.82 346.062 1112.26 346.292 1113.58 346.75C1114.89 347.208 1116.01 347.938 1116.95 348.938C1117.91 349.938 1118.64 351.26 1119.14 352.906C1119.66 354.552 1119.92 356.562 1119.92 358.938V380.5H1110.86V358.906C1110.86 357.406 1110.65 356.24 1110.23 355.406C1109.82 354.573 1109.2 353.99 1108.39 353.656C1107.6 353.302 1106.62 353.125 1105.45 353.125C1104.24 353.125 1103.19 353.365 1102.3 353.844C1101.42 354.323 1100.69 354.99 1100.11 355.844C1099.55 356.677 1099.12 357.656 1098.83 358.781C1098.53 359.906 1098.39 361.115 1098.39 362.406ZM1158.97 381.125C1156.34 381.125 1153.99 380.708 1151.9 379.875C1149.82 379.021 1148.05 377.844 1146.59 376.344C1145.15 374.844 1144.05 373.104 1143.28 371.125C1142.51 369.125 1142.12 367 1142.12 364.75V363.5C1142.12 360.938 1142.49 358.594 1143.22 356.469C1143.95 354.344 1144.99 352.5 1146.34 350.938C1147.72 349.375 1149.38 348.177 1151.34 347.344C1153.3 346.49 1155.51 346.062 1157.97 346.062C1160.36 346.062 1162.49 346.458 1164.34 347.25C1166.2 348.042 1167.75 349.167 1169 350.625C1170.27 352.083 1171.23 353.833 1171.87 355.875C1172.52 357.896 1172.84 360.146 1172.84 362.625V366.375H1145.97V360.375H1164V359.688C1164 358.438 1163.77 357.323 1163.31 356.344C1162.87 355.344 1162.21 354.552 1161.31 353.969C1160.41 353.385 1159.27 353.094 1157.87 353.094C1156.69 353.094 1155.66 353.354 1154.81 353.875C1153.96 354.396 1153.26 355.125 1152.72 356.062C1152.2 357 1151.8 358.104 1151.53 359.375C1151.28 360.625 1151.15 362 1151.15 363.5V364.75C1151.15 366.104 1151.34 367.354 1151.72 368.5C1152.11 369.646 1152.66 370.635 1153.37 371.469C1154.1 372.302 1154.98 372.948 1156 373.406C1157.04 373.865 1158.22 374.094 1159.53 374.094C1161.15 374.094 1162.66 373.781 1164.06 373.156C1165.48 372.51 1166.7 371.542 1167.72 370.25L1172.09 375C1171.38 376.021 1170.41 377 1169.19 377.938C1167.98 378.875 1166.52 379.646 1164.81 380.25C1163.1 380.833 1161.15 381.125 1158.97 381.125ZM1203.61 354.062V380.5H1194.61V346.688H1203.08L1203.61 354.062ZM1213.79 346.469L1213.64 354.812C1213.2 354.75 1212.67 354.698 1212.04 354.656C1211.44 354.594 1210.89 354.562 1210.39 354.562C1209.12 354.562 1208.01 354.729 1207.08 355.062C1206.16 355.375 1205.39 355.844 1204.76 356.469C1204.16 357.094 1203.7 357.854 1203.39 358.75C1203.1 359.646 1202.93 360.667 1202.89 361.812L1201.08 361.25C1201.08 359.062 1201.29 357.052 1201.73 355.219C1202.17 353.365 1202.8 351.75 1203.64 350.375C1204.49 349 1205.53 347.938 1206.76 347.188C1207.99 346.438 1209.4 346.062 1210.98 346.062C1211.48 346.062 1211.99 346.104 1212.51 346.188C1213.03 346.25 1213.46 346.344 1213.79 346.469ZM1285.54 371.156C1285.54 370.51 1285.36 369.927 1284.98 369.406C1284.61 368.885 1283.91 368.406 1282.89 367.969C1281.89 367.51 1280.44 367.094 1278.54 366.719C1276.83 366.344 1275.24 365.875 1273.76 365.312C1272.3 364.729 1271.03 364.031 1269.95 363.219C1268.89 362.406 1268.05 361.448 1267.45 360.344C1266.84 359.219 1266.54 357.938 1266.54 356.5C1266.54 355.083 1266.84 353.75 1267.45 352.5C1268.07 351.25 1268.96 350.146 1270.11 349.188C1271.27 348.208 1272.69 347.448 1274.36 346.906C1276.04 346.344 1277.94 346.062 1280.04 346.062C1282.98 346.062 1285.5 346.531 1287.61 347.469C1289.73 348.406 1291.36 349.698 1292.48 351.344C1293.63 352.969 1294.2 354.823 1294.2 356.906H1285.2C1285.2 356.031 1285.01 355.25 1284.64 354.562C1284.28 353.854 1283.72 353.302 1282.95 352.906C1282.2 352.49 1281.22 352.281 1280.01 352.281C1279.01 352.281 1278.15 352.458 1277.42 352.812C1276.69 353.146 1276.13 353.604 1275.73 354.188C1275.36 354.75 1275.17 355.375 1275.17 356.062C1275.17 356.583 1275.27 357.052 1275.48 357.469C1275.71 357.865 1276.07 358.229 1276.57 358.562C1277.07 358.896 1277.72 359.208 1278.51 359.5C1279.32 359.771 1280.32 360.021 1281.51 360.25C1283.95 360.75 1286.13 361.406 1288.04 362.219C1289.96 363.01 1291.48 364.094 1292.61 365.469C1293.73 366.823 1294.29 368.604 1294.29 370.812C1294.29 372.312 1293.96 373.688 1293.29 374.938C1292.63 376.188 1291.67 377.281 1290.42 378.219C1289.17 379.135 1287.67 379.854 1285.92 380.375C1284.19 380.875 1282.24 381.125 1280.07 381.125C1276.93 381.125 1274.26 380.562 1272.07 379.438C1269.91 378.312 1268.26 376.885 1267.14 375.156C1266.03 373.406 1265.48 371.615 1265.48 369.781H1274.01C1274.05 371.01 1274.37 372 1274.95 372.75C1275.55 373.5 1276.31 374.042 1277.23 374.375C1278.17 374.708 1279.18 374.875 1280.26 374.875C1281.43 374.875 1282.4 374.719 1283.17 374.406C1283.94 374.073 1284.52 373.635 1284.92 373.094C1285.33 372.531 1285.54 371.885 1285.54 371.156ZM1315.34 363.938V363.281C1315.34 360.802 1315.69 358.521 1316.4 356.438C1317.11 354.333 1318.14 352.51 1319.5 350.969C1320.85 349.427 1322.52 348.229 1324.5 347.375C1326.47 346.5 1328.75 346.062 1331.31 346.062C1333.87 346.062 1336.15 346.5 1338.15 347.375C1340.15 348.229 1341.83 349.427 1343.18 350.969C1344.56 352.51 1345.6 354.333 1346.31 356.438C1347.02 358.521 1347.37 360.802 1347.37 363.281V363.938C1347.37 366.396 1347.02 368.677 1346.31 370.781C1345.6 372.865 1344.56 374.688 1343.18 376.25C1341.83 377.792 1340.16 378.99 1338.18 379.844C1336.2 380.698 1333.93 381.125 1331.37 381.125C1328.81 381.125 1326.53 380.698 1324.53 379.844C1322.55 378.99 1320.87 377.792 1319.5 376.25C1318.14 374.688 1317.11 372.865 1316.4 370.781C1315.69 368.677 1315.34 366.396 1315.34 363.938ZM1324.34 363.281V363.938C1324.34 365.354 1324.46 366.677 1324.71 367.906C1324.96 369.135 1325.36 370.219 1325.9 371.156C1326.46 372.073 1327.19 372.792 1328.09 373.312C1328.98 373.833 1330.08 374.094 1331.37 374.094C1332.62 374.094 1333.69 373.833 1334.59 373.312C1335.48 372.792 1336.2 372.073 1336.75 371.156C1337.29 370.219 1337.68 369.135 1337.93 367.906C1338.2 366.677 1338.34 365.354 1338.34 363.938V363.281C1338.34 361.906 1338.2 360.615 1337.93 359.406C1337.68 358.177 1337.28 357.094 1336.71 356.156C1336.17 355.198 1335.45 354.448 1334.56 353.906C1333.66 353.365 1332.58 353.094 1331.31 353.094C1330.04 353.094 1328.95 353.365 1328.06 353.906C1327.18 354.448 1326.46 355.198 1325.9 356.156C1325.36 357.094 1324.96 358.177 1324.71 359.406C1324.46 360.615 1324.34 361.906 1324.34 363.281ZM1379.04 332.5V380.5H1370.01V332.5H1379.04ZM1423.12 372.406V346.688H1432.12V380.5H1423.65L1423.12 372.406ZM1424.12 365.469L1426.78 365.406C1426.78 367.656 1426.51 369.75 1425.99 371.688C1425.47 373.604 1424.69 375.271 1423.65 376.688C1422.61 378.083 1421.3 379.177 1419.71 379.969C1418.13 380.74 1416.26 381.125 1414.12 381.125C1412.47 381.125 1410.95 380.896 1409.56 380.438C1408.18 379.958 1406.99 379.219 1405.99 378.219C1405.01 377.198 1404.24 375.896 1403.68 374.312C1403.14 372.708 1402.87 370.781 1402.87 368.531V346.688H1411.87V368.594C1411.87 369.594 1411.98 370.438 1412.21 371.125C1412.46 371.812 1412.81 372.375 1413.24 372.812C1413.68 373.25 1414.19 373.562 1414.78 373.75C1415.38 373.938 1416.05 374.031 1416.78 374.031C1418.63 374.031 1420.09 373.656 1421.15 372.906C1422.23 372.156 1422.99 371.135 1423.43 369.844C1423.89 368.531 1424.12 367.073 1424.12 365.469ZM1472.2 346.688V353.062H1452.51V346.688H1472.2ZM1457.38 338.344H1466.38V370.312C1466.38 371.292 1466.51 372.042 1466.76 372.562C1467.03 373.083 1467.43 373.448 1467.95 373.656C1468.47 373.844 1469.12 373.938 1469.92 373.938C1470.48 373.938 1470.98 373.917 1471.42 373.875C1471.87 373.812 1472.26 373.75 1472.57 373.688L1472.6 380.312C1471.83 380.562 1471 380.76 1470.1 380.906C1469.21 381.052 1468.22 381.125 1467.13 381.125C1465.15 381.125 1463.43 380.802 1461.95 380.156C1460.49 379.49 1459.36 378.427 1458.57 376.969C1457.78 375.51 1457.38 373.594 1457.38 371.219V338.344ZM1503.46 346.688V380.5H1494.43V346.688H1503.46ZM1493.87 337.875C1493.87 336.562 1494.33 335.479 1495.24 334.625C1496.16 333.771 1497.39 333.344 1498.93 333.344C1500.45 333.344 1501.67 333.771 1502.59 334.625C1503.52 335.479 1503.99 336.562 1503.99 337.875C1503.99 339.188 1503.52 340.271 1502.59 341.125C1501.67 341.979 1500.45 342.406 1498.93 342.406C1497.39 342.406 1496.16 341.979 1495.24 341.125C1494.33 340.271 1493.87 339.188 1493.87 337.875ZM1526.1 363.938V363.281C1526.1 360.802 1526.46 358.521 1527.16 356.438C1527.87 354.333 1528.9 352.51 1530.26 350.969C1531.61 349.427 1533.28 348.229 1535.26 347.375C1537.24 346.5 1539.51 346.062 1542.07 346.062C1544.63 346.062 1546.91 346.5 1548.91 347.375C1550.91 348.229 1552.59 349.427 1553.95 350.969C1555.32 352.51 1556.36 354.333 1557.07 356.438C1557.78 358.521 1558.13 360.802 1558.13 363.281V363.938C1558.13 366.396 1557.78 368.677 1557.07 370.781C1556.36 372.865 1555.32 374.688 1553.95 376.25C1552.59 377.792 1550.92 378.99 1548.95 379.844C1546.97 380.698 1544.7 381.125 1542.13 381.125C1539.57 381.125 1537.29 380.698 1535.29 379.844C1533.31 378.99 1531.63 377.792 1530.26 376.25C1528.9 374.688 1527.87 372.865 1527.16 370.781C1526.46 368.677 1526.1 366.396 1526.1 363.938ZM1535.1 363.281V363.938C1535.1 365.354 1535.23 366.677 1535.48 367.906C1535.73 369.135 1536.12 370.219 1536.66 371.156C1537.23 372.073 1537.96 372.792 1538.85 373.312C1539.75 373.833 1540.84 374.094 1542.13 374.094C1543.38 374.094 1544.46 373.833 1545.35 373.312C1546.25 372.792 1546.97 372.073 1547.51 371.156C1548.05 370.219 1548.45 369.135 1548.7 367.906C1548.97 366.677 1549.1 365.354 1549.1 363.938V363.281C1549.1 361.906 1548.97 360.615 1548.7 359.406C1548.45 358.177 1548.04 357.094 1547.48 356.156C1546.93 355.198 1546.22 354.448 1545.32 353.906C1544.42 353.365 1543.34 353.094 1542.07 353.094C1540.8 353.094 1539.72 353.365 1538.82 353.906C1537.95 354.448 1537.23 355.198 1536.66 356.156C1536.12 357.094 1535.73 358.177 1535.48 359.406C1535.23 360.615 1535.1 361.906 1535.1 363.281ZM1589.12 353.906V380.5H1580.12V346.688H1588.55L1589.12 353.906ZM1587.8 362.406H1585.37C1585.37 359.906 1585.69 357.656 1586.34 355.656C1586.98 353.635 1587.89 351.917 1589.05 350.5C1590.22 349.062 1591.61 347.969 1593.21 347.219C1594.84 346.448 1596.65 346.062 1598.65 346.062C1600.23 346.062 1601.68 346.292 1602.99 346.75C1604.3 347.208 1605.43 347.938 1606.37 348.938C1607.32 349.938 1608.05 351.26 1608.55 352.906C1609.07 354.552 1609.34 356.562 1609.34 358.938V380.5H1600.27V358.906C1600.27 357.406 1600.06 356.24 1599.65 355.406C1599.23 354.573 1598.62 353.99 1597.8 353.656C1597.01 353.302 1596.03 353.125 1594.87 353.125C1593.66 353.125 1592.61 353.365 1591.71 353.844C1590.84 354.323 1590.11 354.99 1589.52 355.844C1588.96 356.677 1588.53 357.656 1588.24 358.781C1587.95 359.906 1587.8 361.115 1587.8 362.406Z"/>
  <path fill="white" d="M222 346V235.5H331.5V166H222V53H157.5V166H46V233.5L157.5 235.5L155 346H222Z"/>
  <path fill="url(#paint0_linear_222_32)" d="M105.186 84.1486L162.611 65.3857V171.709H54.0143L53.4457 155.22L105.186 84.1486Z"/>
  <path fill="url(#paint1_linear_222_32)" d="M105.186 314.42L162.611 333.183V225.154H54.0143V243.349L105.186 314.42Z"/>
  <path fill="url(#paint2_linear_222_32)" d="M71.64 38.0943L0 137.594L54.0143 155.22L105.186 84.1486L71.64 38.0943Z"/>
  <path fill="url(#paint3_linear_222_32)" d="M71.64 38.0943L188.766 0V56.8571L105.186 84.1486L71.64 38.0943Z"/>
  <path fill="url(#paint4_linear_222_32)" d="M0 137.594V260.406L54.0143 243.349V155.22L0 137.594Z"/>
  <path fill="url(#paint5_linear_222_32)" d="M0 260.406L71.64 359.906L105.186 314.42L54.0143 243.349L0 260.406Z"/>
  <path fill="url(#paint6_linear_222_32)" d="M71.64 359.906L188.766 398V341.143L105.186 314.42L71.64 359.906Z"/>
  <path fill="url(#paint7_linear_222_32)" d="M269.503 371.277L188.766 398V341.143L216.057 334.32V225.154L269.503 280.306V371.277Z"/>
  <path fill="url(#paint8_linear_222_32)" d="M216.057 225.154H324.086L378.1 279.737L269.503 280.306L216.057 225.154Z"/>
  <path fill="url(#paint9_linear_222_32)" d="M271.777 84.1486L188.766 56.8571V0L305.323 38.0943L271.777 84.1486Z"/>
  <path fill="url(#paint10_linear_222_32)" d="M324.086 155.22L271.777 84.1486L305.323 38.0943L378.1 137.594L324.086 155.22Z"/>
  <path fill="url(#paint11_linear_222_32)" d="M324.086 225.154V155.22L378.1 137.594V279.737L324.086 225.154Z"/>
  <path fill="url(#paint12_linear_222_32)" d="M216.057 171.709V65.3857L271.777 84.1486L324.086 155.22V171.709H216.057Z"/>
  <defs>
  <linearGradient id="paint0_linear_222_32" x1="179.204" y1="70.2352" x2="492.257" y2="373.684" gradientUnits="userSpaceOnUse">
    <stop stop-color="#8DC122"/>
    <stop offset="1" stop-color="#709A1B"/>
  </linearGradient>
  <linearGradient id="paint1_linear_222_32" x1="180.142" y1="328.874" x2="486.741" y2="17.2996" gradientUnits="userSpaceOnUse">
    <stop stop-color="#8DC122"/>
    <stop offset="1" stop-color="#709A1B"/>
  </linearGradient>
  <linearGradient id="paint2_linear_222_32" x1="324.962" y1="79.2136" x2="151.501" y2="307.068" gradientUnits="userSpaceOnUse">
    <stop stop-color="#8DC122"/>
    <stop offset="1" stop-color="#709A1B"/>
  </linearGradient>
  <linearGradient id="paint3_linear_222_32" x1="396.454" y1="102.189" x2="110.709" y2="172.987" gradientUnits="userSpaceOnUse">
    <stop stop-color="#8DC122"/>
    <stop offset="1" stop-color="#709A1B"/>
  </linearGradient>
  <linearGradient id="paint4_linear_222_32" x1="187.06" y1="31.3241" x2="187.06" y2="274.546" gradientUnits="userSpaceOnUse">
    <stop stop-color="#8DC122"/>
    <stop offset="1" stop-color="#709A1B"/>
  </linearGradient>
  <linearGradient id="paint5_linear_222_32" x1="110.364" y1="31.0634" x2="266.56" y2="267.678" gradientUnits="userSpaceOnUse">
    <stop stop-color="#8DC122"/>
    <stop offset="1" stop-color="#709A1B"/>
  </linearGradient>
  <linearGradient id="paint6_linear_222_32" x1="182.217" y1="334.32" x2="284.848" y2="413.26" gradientUnits="userSpaceOnUse">
    <stop stop-color="#8DC122"/>
    <stop offset="1" stop-color="#709A1B"/>
  </linearGradient>
  <linearGradient id="paint7_linear_222_32" x1="135.796" y1="20.9474" x2="133.865" y2="271.053" gradientUnits="userSpaceOnUse">
    <stop stop-color="#03A0E3"/>
    <stop offset="1" stop-color="#027FB5"/>
  </linearGradient>
  <linearGradient id="paint8_linear_222_32" x1="315.747" y1="196.948" x2="63.68" y2="196.948" gradientUnits="userSpaceOnUse">
    <stop stop-color="#03A0E3"/>
    <stop offset="1" stop-color="#027FB5"/>
  </linearGradient>
  <linearGradient id="paint9_linear_222_32" x1="-2.96945e-06" y1="129.081" x2="254.737" y2="186.429" gradientUnits="userSpaceOnUse">
    <stop stop-color="#03A0E3"/>
    <stop offset="1" stop-color="#027FB5"/>
  </linearGradient>
  <linearGradient id="paint10_linear_222_32" x1="62.6797" y1="77.2816" x2="222.373" y2="314.039" gradientUnits="userSpaceOnUse">
    <stop stop-color="#03A0E3"/>
    <stop offset="1" stop-color="#027FB5"/>
  </linearGradient>
  <linearGradient id="paint11_linear_222_32" x1="324.735" y1="146.691" x2="324.45" y2="206.395" gradientUnits="userSpaceOnUse">
    <stop stop-color="#03A0E3"/>
    <stop offset="1" stop-color="#027FB5"/>
  </linearGradient>
  <linearGradient id="paint12_linear_222_32" x1="270.64" y1="84.1486" x2="216.738" y2="172.126" gradientUnits="userSpaceOnUse">
    <stop stop-color="#03A0E3"/>
    <stop offset="1" stop-color="#027FB5"/>
  </linearGradient>
  </defs>
</svg>
