<svg width="298" height="74" viewBox="0 0 298 74" fill="none" xmlns="http://www.w3.org/2000/svg">
<g clip-path="url(#clip0_137_386)">
<rect width="297.073" height="73.7606" fill="white"/>
<path d="M19.4939 15.5951L30.1365 12.1178V31.8224H10.0104L9.905 28.7666L19.4939 15.5951Z" fill="url(#paint0_linear_137_386)"/>
<path d="M19.4939 58.2709L30.1365 61.7482V41.7274H10.0104V45.0993L19.4939 58.2709Z" fill="url(#paint1_linear_137_386)"/>
<path d="M13.2769 7.05995L0 25.5001L10.0104 28.7666L19.4939 15.5951L13.2769 7.05995Z" fill="url(#paint2_linear_137_386)"/>
<path d="M13.2769 7.05995L34.9836 0V10.5372L19.4939 15.5951L13.2769 7.05995Z" fill="url(#paint3_linear_137_386)"/>
<path d="M0 25.5001V48.2605L10.0104 45.0993V28.7666L0 25.5001Z" fill="url(#paint4_linear_137_386)"/>
<path d="M0 48.2605L13.2769 66.7007L19.4939 58.2709L10.0104 45.0993L0 48.2605Z" fill="url(#paint5_linear_137_386)"/>
<path d="M13.2769 66.7007L34.9836 73.7606V63.2234L19.4939 58.2709L13.2769 66.7007Z" fill="url(#paint6_linear_137_386)"/>
<path d="M49.9465 68.8081L34.9836 73.7606V63.2234L40.0415 61.9589V41.7274L49.9465 51.9486V68.8081Z" fill="url(#paint7_linear_137_386)"/>
<path d="M40.0415 41.7274H60.0622L70.0726 51.8432L49.9465 51.9486L40.0415 41.7274Z" fill="url(#paint8_linear_137_386)"/>
<path d="M50.368 15.5951L34.9836 10.5372V0L56.5849 7.05995L50.368 15.5951Z" fill="url(#paint9_linear_137_386)"/>
<path d="M60.0622 28.7666L50.368 15.5951L56.5849 7.05995L70.0726 25.5001L60.0622 28.7666Z" fill="url(#paint10_linear_137_386)"/>
<path d="M60.0622 41.7274V28.7666L70.0726 25.5001V51.8432L60.0622 41.7274Z" fill="url(#paint11_linear_137_386)"/>
<path d="M40.0415 31.8224V12.1178L50.368 15.5951L60.0622 28.7666V31.8224H40.0415Z" fill="url(#paint12_linear_137_386)"/>
<path d="M105.287 47.4744C102.788 47.4744 100.479 47.0633 98.3603 46.2409C96.2727 45.3869 94.454 44.2008 92.9042 42.6826C91.386 41.1328 90.1999 39.3141 89.3459 37.2265C88.5235 35.1074 88.1124 32.7984 88.1124 30.2997C88.1124 27.8326 88.5394 25.5553 89.3933 23.4678C90.279 21.3802 91.5125 19.5615 93.094 18.0117C94.6754 16.4619 96.5258 15.26 98.6449 14.406C100.796 13.552 103.12 13.125 105.619 13.125C107.201 13.125 108.751 13.3306 110.269 13.7417C111.787 14.1529 113.194 14.7697 114.491 15.5921C115.82 16.3828 116.958 17.3475 117.907 18.4861L112.926 24.132C111.945 23.0566 110.838 22.2184 109.604 21.6175C108.403 21.0165 107.058 20.716 105.572 20.716C104.307 20.716 103.105 20.9374 101.966 21.3802C100.859 21.823 99.8943 22.4714 99.0719 23.3254C98.2496 24.1794 97.6012 25.1916 97.1267 26.3619C96.6523 27.5321 96.4151 28.8606 96.4151 30.3472C96.4151 31.8021 96.6365 33.1305 97.0793 34.3324C97.5537 35.5027 98.2179 36.5149 99.0719 37.3689C99.9575 38.1912 101.001 38.8238 102.203 39.2666C103.437 39.7094 104.797 39.9308 106.283 39.9308C107.264 39.9308 108.197 39.8043 109.083 39.5513C110 39.2666 110.854 38.8713 111.645 38.3652C112.435 37.8591 113.115 37.2898 113.685 36.6572L117.623 42.9198C116.863 43.7738 115.82 44.5487 114.491 45.2446C113.194 45.9404 111.739 46.4939 110.126 46.9051C108.545 47.2847 106.932 47.4744 105.287 47.4744ZM135.763 47V31.5333C135.763 30.2364 135.399 29.2876 134.672 28.6866C133.976 28.054 132.996 27.7377 131.73 27.7377C130.497 27.7377 129.39 27.9749 128.409 28.4494C127.46 28.8922 126.543 29.6355 125.658 30.6793L121.103 26.267C122.621 24.7171 124.361 23.4994 126.322 22.6138C128.283 21.7282 130.418 21.2853 132.727 21.2853C134.846 21.2853 136.68 21.6016 138.23 22.2342C139.78 22.8668 140.982 23.8315 141.836 25.1283C142.69 26.4251 143.117 28.0698 143.117 30.0625V47H135.763ZM129.216 47.4744C127.634 47.4744 126.195 47.1581 124.899 46.5256C123.633 45.893 122.621 45.0232 121.862 43.9161C121.135 42.7775 120.771 41.4491 120.771 39.9308C120.771 38.634 121.008 37.4954 121.483 36.5149C121.957 35.5344 122.653 34.7278 123.57 34.0952C124.519 33.431 125.689 32.9408 127.081 32.6245C128.504 32.2765 130.149 32.1026 132.015 32.1026H139.654L139.227 36.8944H132.205C131.541 36.8944 130.956 36.9577 130.449 37.0842C129.943 37.1791 129.516 37.353 129.168 37.6061C128.821 37.8275 128.552 38.0963 128.362 38.4126C128.204 38.7289 128.125 39.1085 128.125 39.5513C128.125 40.0257 128.251 40.4369 128.504 40.7848C128.757 41.1328 129.089 41.4016 129.501 41.5914C129.943 41.7812 130.449 41.876 131.019 41.876C131.841 41.876 132.616 41.7495 133.344 41.4965C134.103 41.2118 134.767 40.8165 135.336 40.3104C135.937 39.8043 136.412 39.2192 136.76 38.555L138.088 41.9709C137.424 43.0463 136.617 43.9952 135.668 44.8176C134.751 45.6399 133.739 46.2883 132.632 46.7628C131.556 47.2372 130.418 47.4744 129.216 47.4744ZM149.209 47V21.8072H156.468L156.8 30.015L155.377 28.4019C155.788 27.0735 156.421 25.8716 157.275 24.7962C158.129 23.7208 159.141 22.8668 160.311 22.2342C161.513 21.6016 162.762 21.2853 164.059 21.2853C164.628 21.2853 165.15 21.3328 165.625 21.4277C166.131 21.4909 166.574 21.6016 166.953 21.7598L164.913 30.1574C164.565 29.9676 164.091 29.8095 163.49 29.6829C162.92 29.5248 162.319 29.4457 161.687 29.4457C160.991 29.4457 160.343 29.5722 159.742 29.8253C159.172 30.0467 158.666 30.3788 158.223 30.8216C157.812 31.2644 157.48 31.7863 157.227 32.3872C157.006 32.9882 156.895 33.6682 156.895 34.4273V47H149.209ZM181.784 47.4744C179.001 47.4744 176.565 46.9209 174.478 45.8139C172.422 44.7069 170.824 43.1887 169.686 41.2593C168.579 39.2983 168.025 37.0684 168.025 34.5697C168.025 32.6086 168.341 30.8216 168.974 29.2085C169.607 27.5638 170.492 26.1563 171.631 24.986C172.801 23.8157 174.161 22.9143 175.711 22.2817C177.293 21.6174 179.016 21.2853 180.882 21.2853C182.654 21.2853 184.267 21.6016 185.722 22.2342C187.177 22.8668 188.442 23.7524 189.517 24.8911C190.593 26.0297 191.415 27.374 191.984 28.9238C192.554 30.4737 192.823 32.1658 192.791 34.0003L192.743 36.0879H172.722L171.583 31.7705H186.528L185.722 32.6245V31.6756C185.658 30.8848 185.405 30.2048 184.963 29.6355C184.551 29.0345 183.998 28.5601 183.302 28.2122C182.638 27.8642 181.879 27.6903 181.025 27.6903C179.76 27.6903 178.684 27.9433 177.799 28.4494C176.945 28.9238 176.296 29.6197 175.853 30.5369C175.411 31.4542 175.189 32.5928 175.189 33.9529C175.189 35.313 175.474 36.5149 176.043 37.5586C176.644 38.6024 177.498 39.409 178.605 39.9783C179.744 40.5476 181.088 40.8323 182.638 40.8323C183.682 40.8323 184.631 40.6741 185.485 40.3578C186.339 40.0415 187.256 39.5038 188.236 38.7447L191.795 43.7738C190.814 44.5962 189.77 45.292 188.663 45.8613C187.556 46.399 186.418 46.7944 185.247 47.0474C184.109 47.3321 182.954 47.4744 181.784 47.4744ZM198.385 47V13.7892H212.761C214.848 13.7892 216.714 14.2636 218.359 15.2125C220.004 16.1614 221.301 17.4582 222.25 19.1029C223.198 20.716 223.673 22.5663 223.673 24.6539C223.673 26.773 223.198 28.6866 222.25 30.3946C221.301 32.1026 220.004 33.4468 218.359 34.4273C216.714 35.4078 214.848 35.8981 212.761 35.8981H206.498V47H198.385ZM206.403 28.7341H211.67C212.365 28.7341 212.982 28.5759 213.52 28.2596C214.089 27.9117 214.548 27.4373 214.896 26.8363C215.244 26.2353 215.418 25.5553 215.418 24.7962C215.418 24.0055 215.244 23.3254 214.896 22.7561C214.548 22.1868 214.089 21.744 213.52 21.4277C212.982 21.1114 212.365 20.9532 211.67 20.9532H206.403V28.7341ZM229.039 47V11.8914H236.678V47H229.039ZM256.412 47V31.5333C256.412 30.2364 256.048 29.2876 255.321 28.6866C254.625 28.054 253.644 27.7377 252.379 27.7377C251.146 27.7377 250.039 27.9749 249.058 28.4494C248.109 28.8922 247.192 29.6355 246.306 30.6793L241.752 26.267C243.27 24.7171 245.009 23.4994 246.97 22.6138C248.932 21.7282 251.066 21.2853 253.375 21.2853C255.495 21.2853 257.329 21.6016 258.879 22.2342C260.429 22.8668 261.631 23.8315 262.485 25.1283C263.339 26.4251 263.766 28.0698 263.766 30.0625V47H256.412ZM249.865 47.4744C248.283 47.4744 246.844 47.1581 245.547 46.5256C244.282 45.893 243.27 45.0232 242.511 43.9161C241.783 42.7775 241.42 41.4491 241.42 39.9308C241.42 38.634 241.657 37.4954 242.131 36.5149C242.606 35.5344 243.301 34.7278 244.219 34.0952C245.168 33.431 246.338 32.9408 247.73 32.6245C249.153 32.2765 250.798 32.1026 252.664 32.1026H260.302L259.875 36.8944H252.854C252.189 36.8944 251.604 36.9577 251.098 37.0842C250.592 37.1791 250.165 37.353 249.817 37.6061C249.469 37.8275 249.2 38.0963 249.011 38.4126C248.852 38.7289 248.773 39.1085 248.773 39.5513C248.773 40.0257 248.9 40.4369 249.153 40.7848C249.406 41.1328 249.738 41.4016 250.149 41.5914C250.592 41.7812 251.098 41.876 251.667 41.876C252.49 41.876 253.265 41.7495 253.992 41.4965C254.751 41.2118 255.416 40.8165 255.985 40.3104C256.586 39.8043 257.06 39.2192 257.408 38.555L258.737 41.9709C258.072 43.0463 257.266 43.9952 256.317 44.8176C255.4 45.6399 254.388 46.2883 253.281 46.7628C252.205 47.2372 251.066 47.4744 249.865 47.4744ZM269.858 47V21.8072H277.117L277.401 26.9312L275.836 27.5005C276.184 26.3619 276.8 25.3339 277.686 24.4166C278.603 23.4678 279.695 22.7087 280.96 22.1393C282.225 21.57 283.553 21.2853 284.945 21.2853C286.843 21.2853 288.44 21.6807 289.737 22.4714C291.034 23.2305 291.998 24.385 292.631 25.9349C293.295 27.4531 293.627 29.335 293.627 31.5807V47H285.989V32.15C285.989 31.1379 285.846 30.2997 285.562 29.6355C285.277 28.9713 284.85 28.481 284.281 28.1647C283.711 27.8484 283 27.7061 282.146 27.7377C281.482 27.7377 280.865 27.8484 280.295 28.0698C279.726 28.2596 279.22 28.5601 278.777 28.9713C278.366 29.3508 278.05 29.7936 277.828 30.2997C277.607 30.8058 277.496 31.3751 277.496 32.0077V47H273.653C272.831 47 272.088 47 271.423 47C270.791 47 270.269 47 269.858 47Z" fill="#3B3B3B"/>
<path d="M91.9146 61.5676H93.3857L95.5517 67.7587L97.7177 61.5676H99.1887L96.1424 70H94.961L91.9146 61.5676ZM91.1212 61.5676H92.5864L92.8528 67.6023V70H91.1212V61.5676ZM98.5169 61.5676H99.988V70H98.2505V67.6023L98.5169 61.5676ZM107.375 70.1158C106.888 70.1158 106.452 70.0386 106.066 69.8842C105.68 69.7259 105.352 69.5077 105.081 69.2297C104.815 68.9517 104.61 68.6293 104.468 68.2625C104.325 67.8919 104.253 67.4981 104.253 67.0811V66.8494C104.253 66.3745 104.321 65.9402 104.456 65.5463C104.591 65.1525 104.784 64.8108 105.035 64.5212C105.29 64.2317 105.599 64.0097 105.962 63.8552C106.325 63.6969 106.734 63.6178 107.19 63.6178C107.634 63.6178 108.027 63.6911 108.371 63.8378C108.715 63.9846 109.002 64.1931 109.234 64.4633C109.47 64.7336 109.647 65.0579 109.767 65.4363C109.887 65.8108 109.946 66.2278 109.946 66.6873V67.3822H104.966V66.2703H108.307V66.1429C108.307 65.9112 108.265 65.7046 108.18 65.5232C108.099 65.3378 107.975 65.1911 107.809 65.083C107.643 64.9749 107.431 64.9208 107.172 64.9208C106.952 64.9208 106.763 64.9691 106.605 65.0656C106.446 65.1622 106.317 65.2973 106.217 65.471C106.12 65.6448 106.047 65.8494 105.997 66.0849C105.95 66.3166 105.927 66.5714 105.927 66.8494V67.0811C105.927 67.332 105.962 67.5637 106.031 67.7761C106.105 67.9884 106.207 68.1718 106.338 68.3263C106.473 68.4807 106.636 68.6004 106.825 68.6853C107.018 68.7703 107.236 68.8127 107.479 68.8127C107.78 68.8127 108.06 68.7548 108.319 68.639C108.581 68.5193 108.807 68.3398 108.997 68.1004L109.807 68.9807C109.676 69.1699 109.497 69.3514 109.269 69.5251C109.045 69.6988 108.775 69.8417 108.458 69.9537C108.141 70.0618 107.78 70.1158 107.375 70.1158ZM117.681 68.6332V61.1042H119.36V70H117.849L117.681 68.6332ZM113.719 66.9421V66.8205C113.719 66.3417 113.773 65.9073 113.882 65.5174C113.99 65.1236 114.148 64.7857 114.356 64.5039C114.565 64.222 114.822 64.0039 115.127 63.8494C115.432 63.695 115.779 63.6178 116.169 63.6178C116.536 63.6178 116.856 63.695 117.131 63.8494C117.409 64.0039 117.644 64.2239 117.837 64.5097C118.034 64.7915 118.192 65.1255 118.312 65.5116C118.432 65.8938 118.519 66.3127 118.573 66.7683V67.0347C118.519 67.471 118.432 67.8764 118.312 68.251C118.192 68.6255 118.034 68.9537 117.837 69.2355C117.644 69.5135 117.409 69.7297 117.131 69.8842C116.853 70.0386 116.528 70.1158 116.158 70.1158C115.768 70.1158 115.42 70.0367 115.115 69.8784C114.814 69.7201 114.559 69.4981 114.351 69.2124C114.146 68.9266 113.99 68.5907 113.882 68.2046C113.773 67.8185 113.719 67.3977 113.719 66.9421ZM115.387 66.8205V66.9421C115.387 67.2008 115.407 67.4421 115.445 67.666C115.488 67.89 115.555 68.0888 115.648 68.2625C115.745 68.4324 115.868 68.5656 116.019 68.6622C116.173 68.7548 116.36 68.8012 116.58 68.8012C116.866 68.8012 117.102 68.7375 117.287 68.61C117.472 68.4788 117.613 68.2992 117.71 68.0714C117.81 67.8436 117.868 67.5811 117.883 67.2838V66.5251C117.872 66.2819 117.837 66.0637 117.779 65.8707C117.725 65.6737 117.644 65.5058 117.536 65.3668C117.432 65.2278 117.3 65.1197 117.142 65.0425C116.988 64.9653 116.804 64.9266 116.592 64.9266C116.376 64.9266 116.19 64.9768 116.036 65.0772C115.882 65.1737 115.756 65.3069 115.66 65.4768C115.567 65.6467 115.497 65.8475 115.451 66.0792C115.409 66.3069 115.387 66.5541 115.387 66.8205ZM125.508 63.7336V70H123.834V63.7336H125.508ZM123.73 62.1004C123.73 61.8571 123.815 61.6564 123.985 61.4981C124.155 61.3398 124.382 61.2606 124.668 61.2606C124.95 61.2606 125.176 61.3398 125.346 61.4981C125.519 61.6564 125.606 61.8571 125.606 62.1004C125.606 62.3436 125.519 62.5444 125.346 62.7027C125.176 62.861 124.95 62.9402 124.668 62.9402C124.382 62.9402 124.155 62.861 123.985 62.7027C123.815 62.5444 123.73 62.3436 123.73 62.1004ZM132.559 68.8127C132.764 68.8127 132.945 68.7741 133.103 68.6969C133.262 68.6158 133.385 68.5039 133.474 68.361C133.567 68.2143 133.615 68.0425 133.619 67.8456H135.188C135.184 68.2857 135.067 68.6776 134.835 69.0212C134.603 69.361 134.293 69.6293 133.903 69.8263C133.513 70.0193 133.076 70.1158 132.594 70.1158C132.107 70.1158 131.682 70.0347 131.32 69.8726C130.96 69.7104 130.661 69.4865 130.422 69.2008C130.182 68.9112 130.003 68.5753 129.883 68.1931C129.764 67.8069 129.704 67.3938 129.704 66.9537V66.7857C129.704 66.3417 129.764 65.9286 129.883 65.5463C130.003 65.1602 130.182 64.8243 130.422 64.5386C130.661 64.249 130.96 64.0232 131.32 63.861C131.679 63.6988 132.099 63.6178 132.582 63.6178C133.096 63.6178 133.545 63.7162 133.932 63.9131C134.321 64.11 134.627 64.3919 134.847 64.7587C135.071 65.1216 135.184 65.5521 135.188 66.0502H133.619C133.615 65.8417 133.571 65.6525 133.486 65.4826C133.405 65.3127 133.285 65.1776 133.127 65.0772C132.972 64.973 132.781 64.9208 132.553 64.9208C132.31 64.9208 132.111 64.973 131.957 65.0772C131.802 65.1776 131.682 65.3166 131.598 65.4942C131.513 65.668 131.453 65.8668 131.418 66.0907C131.387 66.3108 131.372 66.5425 131.372 66.7857V66.9537C131.372 67.1969 131.387 67.4305 131.418 67.6544C131.449 67.8784 131.507 68.0772 131.592 68.251C131.681 68.4247 131.802 68.5618 131.957 68.6622C132.111 68.7625 132.312 68.8127 132.559 68.8127ZM142.622 68.5869V65.7954C142.622 65.5946 142.589 65.4228 142.523 65.2799C142.457 65.1332 142.355 65.0193 142.216 64.9382C142.081 64.8571 141.905 64.8166 141.689 64.8166C141.504 64.8166 141.344 64.8494 141.208 64.9151C141.073 64.9768 140.969 65.0676 140.896 65.1873C140.822 65.3031 140.786 65.4402 140.786 65.5985H139.118C139.118 65.332 139.179 65.0792 139.303 64.8398C139.427 64.6004 139.606 64.39 139.842 64.2085C140.077 64.0232 140.357 63.8784 140.681 63.7741C141.01 63.6699 141.376 63.6178 141.782 63.6178C142.268 63.6178 142.701 63.6988 143.079 63.861C143.457 64.0232 143.755 64.2664 143.971 64.5907C144.191 64.9151 144.301 65.3205 144.301 65.8069V68.4884C144.301 68.832 144.322 69.1139 144.365 69.334C144.407 69.5502 144.469 69.7394 144.55 69.9015V70H142.865C142.784 69.8301 142.722 69.6178 142.679 69.3629C142.641 69.1042 142.622 68.8456 142.622 68.5869ZM142.842 66.1834L142.853 67.1274H141.921C141.701 67.1274 141.51 67.1525 141.347 67.2027C141.185 67.2529 141.052 67.3243 140.948 67.417C140.844 67.5058 140.766 67.61 140.716 67.7297C140.67 67.8494 140.647 67.9807 140.647 68.1236C140.647 68.2664 140.679 68.3958 140.745 68.5116C140.811 68.6236 140.905 68.7124 141.029 68.778C141.152 68.8398 141.297 68.8707 141.463 68.8707C141.714 68.8707 141.932 68.8205 142.118 68.7201C142.303 68.6197 142.446 68.4961 142.546 68.3494C142.651 68.2027 142.705 68.0637 142.708 67.9324L143.149 68.639C143.087 68.7973 143.002 68.9614 142.894 69.1313C142.79 69.3012 142.656 69.4614 142.494 69.612C142.332 69.7587 142.137 69.8803 141.909 69.9768C141.681 70.0695 141.411 70.1158 141.098 70.1158C140.701 70.1158 140.34 70.0367 140.015 69.8784C139.695 69.7162 139.44 69.4942 139.251 69.2124C139.066 68.9266 138.973 68.6023 138.973 68.2394C138.973 67.9112 139.035 67.6197 139.158 67.3649C139.282 67.11 139.463 66.8958 139.703 66.722C139.946 66.5444 140.249 66.4112 140.612 66.3224C140.975 66.2297 141.396 66.1834 141.874 66.1834H142.842ZM150.431 61.1042V70H148.758V61.1042H150.431ZM162.599 64.9382V72.4093H160.931V63.7336H162.477L162.599 64.9382ZM166.566 66.7973V66.9189C166.566 67.3745 166.512 67.7973 166.404 68.1873C166.3 68.5772 166.145 68.917 165.941 69.2066C165.736 69.4923 165.481 69.7162 165.176 69.8784C164.875 70.0367 164.528 70.1158 164.134 70.1158C163.752 70.1158 163.419 70.0386 163.138 69.8842C162.856 69.7297 162.618 69.5135 162.425 69.2355C162.236 68.9537 162.084 68.6274 161.968 68.2568C161.852 67.8861 161.763 67.4884 161.701 67.0637V66.7452C161.763 66.2896 161.852 65.8726 161.968 65.4942C162.084 65.112 162.236 64.7819 162.425 64.5039C162.618 64.222 162.854 64.0039 163.132 63.8494C163.414 63.695 163.744 63.6178 164.122 63.6178C164.52 63.6178 164.869 63.6931 165.17 63.8436C165.475 63.9942 165.73 64.2104 165.935 64.4923C166.143 64.7741 166.3 65.11 166.404 65.5C166.512 65.89 166.566 66.3224 166.566 66.7973ZM164.892 66.9189V66.7973C164.892 66.5309 164.869 66.2857 164.823 66.0618C164.78 65.834 164.711 65.6351 164.614 65.4653C164.522 65.2954 164.398 65.1641 164.244 65.0714C164.093 64.9749 163.91 64.9266 163.694 64.9266C163.466 64.9266 163.271 64.9633 163.109 65.0367C162.95 65.11 162.821 65.2162 162.721 65.3552C162.62 65.4942 162.545 65.6602 162.495 65.8533C162.445 66.0463 162.414 66.2645 162.402 66.5077V67.3127C162.421 67.5985 162.475 67.8552 162.564 68.083C162.653 68.3069 162.79 68.4846 162.975 68.6158C163.161 68.7471 163.404 68.8127 163.705 68.8127C163.925 68.8127 164.111 68.7645 164.261 68.668C164.412 68.5676 164.533 68.4305 164.626 68.2568C164.723 68.083 164.79 67.8822 164.829 67.6544C164.871 67.4266 164.892 67.1815 164.892 66.9189ZM172.447 61.1042V70H170.774V61.1042H172.447ZM180.292 68.5869V65.7954C180.292 65.5946 180.259 65.4228 180.193 65.2799C180.128 65.1332 180.025 65.0193 179.886 64.9382C179.751 64.8571 179.576 64.8166 179.359 64.8166C179.174 64.8166 179.014 64.8494 178.879 64.9151C178.744 64.9768 178.639 65.0676 178.566 65.1873C178.493 65.3031 178.456 65.4402 178.456 65.5985H176.788C176.788 65.332 176.85 65.0792 176.973 64.8398C177.097 64.6004 177.276 64.39 177.512 64.2085C177.747 64.0232 178.027 63.8784 178.352 63.7741C178.68 63.6699 179.047 63.6178 179.452 63.6178C179.939 63.6178 180.371 63.6988 180.749 63.861C181.128 64.0232 181.425 64.2664 181.641 64.5907C181.861 64.9151 181.971 65.3205 181.971 65.8069V68.4884C181.971 68.832 181.993 69.1139 182.035 69.334C182.078 69.5502 182.139 69.7394 182.22 69.9015V70H180.535C180.454 69.8301 180.392 69.6178 180.35 69.3629C180.311 69.1042 180.292 68.8456 180.292 68.5869ZM180.512 66.1834L180.523 67.1274H179.591C179.371 67.1274 179.18 67.1525 179.018 67.2027C178.856 67.2529 178.722 67.3243 178.618 67.417C178.514 67.5058 178.437 67.61 178.386 67.7297C178.34 67.8494 178.317 67.9807 178.317 68.1236C178.317 68.2664 178.35 68.3958 178.415 68.5116C178.481 68.6236 178.576 68.7124 178.699 68.778C178.823 68.8398 178.968 68.8707 179.134 68.8707C179.385 68.8707 179.603 68.8205 179.788 68.7201C179.973 68.6197 180.116 68.4961 180.217 68.3494C180.321 68.2027 180.375 68.0637 180.379 67.9324L180.819 68.639C180.757 68.7973 180.672 68.9614 180.564 69.1313C180.46 69.3012 180.327 69.4614 180.164 69.612C180.002 69.7587 179.807 69.8803 179.579 69.9768C179.352 70.0695 179.081 70.1158 178.769 70.1158C178.371 70.1158 178.01 70.0367 177.686 69.8784C177.365 69.7162 177.11 69.4942 176.921 69.2124C176.736 68.9266 176.643 68.6023 176.643 68.2394C176.643 67.9112 176.705 67.6197 176.829 67.3649C176.952 67.11 177.134 66.8958 177.373 66.722C177.616 66.5444 177.919 66.4112 178.282 66.3224C178.645 66.2297 179.066 66.1834 179.545 66.1834H180.512ZM187.974 65.0714V70H186.306V63.7336H187.87L187.974 65.0714ZM187.731 66.6467H187.279C187.279 66.1834 187.339 65.7664 187.459 65.3958C187.578 65.0212 187.746 64.7027 187.963 64.4402C188.179 64.1737 188.436 63.971 188.733 63.832C189.034 63.6892 189.37 63.6178 189.741 63.6178C190.034 63.6178 190.302 63.6602 190.546 63.7452C190.789 63.8301 190.997 63.9653 191.171 64.1506C191.349 64.3359 191.484 64.5811 191.576 64.8861C191.673 65.1911 191.721 65.5637 191.721 66.0039V70H190.042V65.9981C190.042 65.7201 190.003 65.5039 189.926 65.3494C189.849 65.195 189.735 65.0869 189.584 65.0251C189.437 64.9595 189.256 64.9266 189.04 64.9266C188.816 64.9266 188.621 64.971 188.455 65.0598C188.293 65.1486 188.158 65.2722 188.049 65.4305C187.945 65.5849 187.866 65.7664 187.812 65.9749C187.758 66.1834 187.731 66.4073 187.731 66.6467ZM197.707 65.0714V70H196.039V63.7336H197.602L197.707 65.0714ZM197.463 66.6467H197.012C197.012 66.1834 197.072 65.7664 197.191 65.3958C197.311 65.0212 197.479 64.7027 197.695 64.4402C197.911 64.1737 198.168 63.971 198.465 63.832C198.767 63.6892 199.102 63.6178 199.473 63.6178C199.767 63.6178 200.035 63.6602 200.278 63.7452C200.521 63.8301 200.73 63.9653 200.904 64.1506C201.081 64.3359 201.216 64.5811 201.309 64.8861C201.406 65.1911 201.454 65.5637 201.454 66.0039V70H199.774V65.9981C199.774 65.7201 199.736 65.5039 199.658 65.3494C199.581 65.195 199.467 65.0869 199.317 65.0251C199.17 64.9595 198.989 64.9266 198.772 64.9266C198.548 64.9266 198.353 64.971 198.187 65.0598C198.025 65.1486 197.89 65.2722 197.782 65.4305C197.678 65.5849 197.599 65.7664 197.545 65.9749C197.49 66.1834 197.463 66.4073 197.463 66.6467ZM208.69 70.1158C208.204 70.1158 207.767 70.0386 207.381 69.8842C206.995 69.7259 206.667 69.5077 206.397 69.2297C206.13 68.9517 205.926 68.6293 205.783 68.2625C205.64 67.8919 205.569 67.4981 205.569 67.0811V66.8494C205.569 66.3745 205.636 65.9402 205.771 65.5463C205.906 65.1525 206.099 64.8108 206.35 64.5212C206.605 64.2317 206.914 64.0097 207.277 63.8552C207.64 63.6969 208.049 63.6178 208.505 63.6178C208.949 63.6178 209.343 63.6911 209.686 63.8378C210.03 63.9846 210.318 64.1931 210.549 64.4633C210.785 64.7336 210.962 65.0579 211.082 65.4363C211.202 65.8108 211.262 66.2278 211.262 66.6873V67.3822H206.281V66.2703H209.623V66.1429C209.623 65.9112 209.58 65.7046 209.495 65.5232C209.414 65.3378 209.291 65.1911 209.125 65.083C208.958 64.9749 208.746 64.9208 208.487 64.9208C208.267 64.9208 208.078 64.9691 207.92 65.0656C207.762 65.1622 207.632 65.2973 207.532 65.471C207.435 65.6448 207.362 65.8494 207.312 66.0849C207.265 66.3166 207.242 66.5714 207.242 66.8494V67.0811C207.242 67.332 207.277 67.5637 207.347 67.7761C207.42 67.9884 207.522 68.1718 207.653 68.3263C207.789 68.4807 207.951 68.6004 208.14 68.6853C208.333 68.7703 208.551 68.8127 208.794 68.8127C209.096 68.8127 209.375 68.7548 209.634 68.639C209.897 68.5193 210.123 68.3398 210.312 68.1004L211.123 68.9807C210.991 69.1699 210.812 69.3514 210.584 69.5251C210.36 69.6988 210.09 69.8417 209.773 69.9537C209.457 70.0618 209.096 70.1158 208.69 70.1158ZM216.963 65.1004V70H215.295V63.7336H216.865L216.963 65.1004ZM218.851 63.6931L218.822 65.2394C218.741 65.2278 218.643 65.2181 218.527 65.2104C218.415 65.1988 218.313 65.1931 218.22 65.1931C217.984 65.1931 217.78 65.2239 217.606 65.2857C217.436 65.3436 217.293 65.4305 217.177 65.5463C217.066 65.6622 216.981 65.8031 216.923 65.9691C216.869 66.1351 216.838 66.3243 216.83 66.5367L216.494 66.4324C216.494 66.027 216.535 65.6544 216.616 65.3147C216.697 64.971 216.815 64.6718 216.969 64.417C217.127 64.1622 217.32 63.9653 217.548 63.8263C217.776 63.6873 218.037 63.6178 218.33 63.6178C218.423 63.6178 218.517 63.6255 218.614 63.6409C218.71 63.6525 218.789 63.6699 218.851 63.6931ZM232.148 68.2683C232.148 68.1486 232.114 68.0405 232.044 67.944C231.975 67.8475 231.845 67.7587 231.656 67.6776C231.471 67.5927 231.202 67.5154 230.851 67.4459C230.534 67.3764 230.239 67.2896 229.965 67.1853C229.695 67.0772 229.459 66.9479 229.258 66.7973C229.061 66.6467 228.907 66.4691 228.795 66.2645C228.683 66.056 228.627 65.8185 228.627 65.5521C228.627 65.2896 228.683 65.0425 228.795 64.8108C228.911 64.5792 229.075 64.3745 229.287 64.1969C229.503 64.0154 229.766 63.8745 230.075 63.7741C230.388 63.6699 230.739 63.6178 231.129 63.6178C231.673 63.6178 232.141 63.7046 232.531 63.8784C232.924 64.0521 233.226 64.2915 233.434 64.5965C233.646 64.8977 233.753 65.2413 233.753 65.6274H232.085C232.085 65.4653 232.05 65.3205 231.98 65.1931C231.915 65.0618 231.81 64.9595 231.668 64.8861C231.529 64.8089 231.347 64.7703 231.123 64.7703C230.938 64.7703 230.778 64.8031 230.642 64.8687C230.507 64.9305 230.403 65.0154 230.33 65.1236C230.26 65.2278 230.226 65.3436 230.226 65.471C230.226 65.5676 230.245 65.6544 230.283 65.7317C230.326 65.805 230.393 65.8726 230.486 65.9344C230.579 65.9961 230.698 66.0541 230.845 66.1081C230.996 66.1583 231.181 66.2046 231.401 66.2471C231.853 66.3398 232.256 66.4614 232.612 66.612C232.967 66.7587 233.249 66.9595 233.457 67.2143C233.666 67.4653 233.77 67.7954 233.77 68.2046C233.77 68.4826 233.708 68.7375 233.585 68.9691C233.461 69.2008 233.283 69.4035 233.052 69.5772C232.82 69.7471 232.542 69.8803 232.218 69.9768C231.897 70.0695 231.536 70.1158 231.135 70.1158C230.552 70.1158 230.058 70.0116 229.652 69.8031C229.251 69.5946 228.946 69.3301 228.737 69.0097C228.532 68.6853 228.43 68.3533 228.43 68.0135H230.011C230.019 68.2413 230.077 68.4247 230.185 68.5637C230.297 68.7027 230.438 68.8031 230.608 68.8649C230.781 68.9266 230.969 68.9575 231.17 68.9575C231.386 68.9575 231.565 68.9286 231.708 68.8707C231.851 68.8089 231.959 68.7278 232.032 68.6274C232.11 68.5232 232.148 68.4035 232.148 68.2683ZM237.67 66.9305V66.8089C237.67 66.3494 237.736 65.9266 237.867 65.5405C237.999 65.1506 238.19 64.8127 238.441 64.527C238.692 64.2413 239 64.0193 239.367 63.861C239.734 63.6988 240.155 63.6178 240.63 63.6178C241.105 63.6178 241.528 63.6988 241.898 63.861C242.269 64.0193 242.58 64.2413 242.831 64.527C243.085 64.8127 243.278 65.1506 243.41 65.5405C243.541 65.9266 243.607 66.3494 243.607 66.8089V66.9305C243.607 67.3861 243.541 67.8089 243.41 68.1988C243.278 68.5849 243.085 68.9228 242.831 69.2124C242.58 69.4981 242.271 69.7201 241.904 69.8784C241.537 70.0367 241.116 70.1158 240.641 70.1158C240.167 70.1158 239.744 70.0367 239.373 69.8784C239.006 69.7201 238.695 69.4981 238.441 69.2124C238.19 68.9228 237.999 68.5849 237.867 68.1988C237.736 67.8089 237.67 67.3861 237.67 66.9305ZM239.338 66.8089V66.9305C239.338 67.1931 239.361 67.4382 239.408 67.666C239.454 67.8938 239.528 68.0946 239.628 68.2683C239.732 68.4382 239.867 68.5714 240.033 68.668C240.199 68.7645 240.402 68.8127 240.641 68.8127C240.873 68.8127 241.072 68.7645 241.238 68.668C241.404 68.5714 241.537 68.4382 241.638 68.2683C241.738 68.0946 241.811 67.8938 241.858 67.666C241.908 67.4382 241.933 67.1931 241.933 66.9305V66.8089C241.933 66.5541 241.908 66.3147 241.858 66.0907C241.811 65.8629 241.736 65.6622 241.632 65.4884C241.531 65.3108 241.398 65.1718 241.232 65.0714C241.066 64.971 240.865 64.9208 240.63 64.9208C240.394 64.9208 240.194 64.971 240.028 65.0714C239.865 65.1718 239.732 65.3108 239.628 65.4884C239.528 65.6622 239.454 65.8629 239.408 66.0907C239.361 66.3147 239.338 66.5541 239.338 66.8089ZM249.476 61.1042V70H247.802V61.1042H249.476ZM257.645 68.5V63.7336H259.313V70H257.743L257.645 68.5ZM257.83 67.2143L258.323 67.2027C258.323 67.6197 258.274 68.0077 258.178 68.3668C258.081 68.722 257.937 69.0309 257.743 69.2934C257.55 69.5521 257.307 69.7548 257.014 69.9015C256.72 70.0444 256.375 70.1158 255.977 70.1158C255.672 70.1158 255.39 70.0734 255.132 69.9884C254.877 69.8996 254.657 69.7625 254.471 69.5772C254.29 69.388 254.147 69.1467 254.043 68.8533C253.942 68.556 253.892 68.1988 253.892 67.7819V63.7336H255.56V67.7934C255.56 67.9788 255.581 68.1351 255.624 68.2625C255.67 68.39 255.734 68.4942 255.815 68.5753C255.896 68.6564 255.991 68.7143 256.099 68.749C256.211 68.7838 256.334 68.8012 256.469 68.8012C256.813 68.8012 257.083 68.7317 257.28 68.5927C257.481 68.4537 257.622 68.2645 257.703 68.0251C257.788 67.7819 257.83 67.5116 257.83 67.2143ZM266.74 63.7336V64.9151H263.092V63.7336H266.74ZM263.995 62.1873H265.663V68.112C265.663 68.2934 265.686 68.4324 265.733 68.529C265.783 68.6255 265.856 68.6931 265.953 68.7317C266.049 68.7664 266.171 68.7838 266.318 68.7838C266.422 68.7838 266.515 68.7799 266.596 68.7722C266.681 68.7606 266.752 68.749 266.81 68.7375L266.816 69.9653C266.673 70.0116 266.518 70.0483 266.352 70.0753C266.186 70.1023 266.003 70.1158 265.802 70.1158C265.435 70.1158 265.115 70.056 264.841 69.9363C264.571 69.8127 264.362 69.6158 264.215 69.3456C264.069 69.0753 263.995 68.7201 263.995 68.2799V62.1873ZM272.535 63.7336V70H270.861V63.7336H272.535ZM270.757 62.1004C270.757 61.8571 270.842 61.6564 271.012 61.4981C271.181 61.3398 271.409 61.2606 271.695 61.2606C271.977 61.2606 272.203 61.3398 272.373 61.4981C272.546 61.6564 272.633 61.8571 272.633 62.1004C272.633 62.3436 272.546 62.5444 272.373 62.7027C272.203 62.861 271.977 62.9402 271.695 62.9402C271.409 62.9402 271.181 62.861 271.012 62.7027C270.842 62.5444 270.757 62.3436 270.757 62.1004ZM276.731 66.9305V66.8089C276.731 66.3494 276.796 65.9266 276.928 65.5405C277.059 65.1506 277.25 64.8127 277.501 64.527C277.752 64.2413 278.061 64.0193 278.428 63.861C278.794 63.6988 279.215 63.6178 279.69 63.6178C280.165 63.6178 280.588 63.6988 280.958 63.861C281.329 64.0193 281.64 64.2413 281.891 64.527C282.146 64.8127 282.339 65.1506 282.47 65.5405C282.601 65.9266 282.667 66.3494 282.667 66.8089V66.9305C282.667 67.3861 282.601 67.8089 282.47 68.1988C282.339 68.5849 282.146 68.9228 281.891 69.2124C281.64 69.4981 281.331 69.7201 280.964 69.8784C280.597 70.0367 280.177 70.1158 279.702 70.1158C279.227 70.1158 278.804 70.0367 278.433 69.8784C278.067 69.7201 277.756 69.4981 277.501 69.2124C277.25 68.9228 277.059 68.5849 276.928 68.1988C276.796 67.8089 276.731 67.3861 276.731 66.9305ZM278.399 66.8089V66.9305C278.399 67.1931 278.422 67.4382 278.468 67.666C278.514 67.8938 278.588 68.0946 278.688 68.2683C278.792 68.4382 278.928 68.5714 279.094 68.668C279.26 68.7645 279.462 68.8127 279.702 68.8127C279.933 68.8127 280.132 68.7645 280.298 68.668C280.464 68.5714 280.597 68.4382 280.698 68.2683C280.798 68.0946 280.872 67.8938 280.918 67.666C280.968 67.4382 280.993 67.1931 280.993 66.9305V66.8089C280.993 66.5541 280.968 66.3147 280.918 66.0907C280.872 65.8629 280.796 65.6622 280.692 65.4884C280.592 65.3108 280.458 65.1718 280.292 65.0714C280.126 64.971 279.926 64.9208 279.69 64.9208C279.455 64.9208 279.254 64.971 279.088 65.0714C278.926 65.1718 278.792 65.3108 278.688 65.4884C278.588 65.6622 278.514 65.8629 278.468 66.0907C278.422 66.3147 278.399 66.5541 278.399 66.8089ZM288.409 65.0714V70H286.741V63.7336H288.305L288.409 65.0714ZM288.166 66.6467H287.714C287.714 66.1834 287.774 65.7664 287.894 65.3958C288.013 65.0212 288.181 64.7027 288.397 64.4402C288.614 64.1737 288.87 63.971 289.168 63.832C289.469 63.6892 289.805 63.6178 290.175 63.6178C290.469 63.6178 290.737 63.6602 290.98 63.7452C291.224 63.8301 291.432 63.9653 291.606 64.1506C291.784 64.3359 291.919 64.5811 292.011 64.8861C292.108 65.1911 292.156 65.5637 292.156 66.0039V70H290.477V65.9981C290.477 65.7201 290.438 65.5039 290.361 65.3494C290.284 65.195 290.17 65.0869 290.019 65.0251C289.872 64.9595 289.691 64.9266 289.475 64.9266C289.251 64.9266 289.056 64.971 288.89 65.0598C288.728 65.1486 288.592 65.2722 288.484 65.4305C288.38 65.5849 288.301 65.7664 288.247 65.9749C288.193 66.1834 288.166 66.4073 288.166 66.6467Z" fill="#626262"/>
</g>
<defs>
<linearGradient id="paint0_linear_137_386" x1="33.2116" y1="13.0166" x2="91.2291" y2="69.2542" gradientUnits="userSpaceOnUse">
<stop stop-color="#8DC122"/>
<stop offset="1" stop-color="#709A1B"/>
</linearGradient>
<linearGradient id="paint1_linear_137_386" x1="33.3854" y1="60.9496" x2="90.2069" y2="3.20611" gradientUnits="userSpaceOnUse">
<stop stop-color="#8DC122"/>
<stop offset="0.602664" stop-color="#7CA91E"/>
<stop offset="1" stop-color="#709A1B"/>
</linearGradient>
<linearGradient id="paint2_linear_137_386" x1="60.2245" y1="14.6805" x2="28.0774" y2="56.9083" gradientUnits="userSpaceOnUse">
<stop stop-color="#8DC122"/>
<stop offset="0.602664" stop-color="#7CA91E"/>
<stop offset="1" stop-color="#709A1B"/>
</linearGradient>
<linearGradient id="paint3_linear_137_386" x1="73.4742" y1="18.9385" x2="20.5174" y2="32.0594" gradientUnits="userSpaceOnUse">
<stop stop-color="#8DC122"/>
<stop offset="1" stop-color="#709A1B"/>
</linearGradient>
<linearGradient id="paint4_linear_137_386" x1="34.6675" y1="5.80523" x2="34.6675" y2="50.8812" gradientUnits="userSpaceOnUse">
<stop stop-color="#8DC122"/>
<stop offset="0.602664" stop-color="#7CA91E"/>
<stop offset="1" stop-color="#709A1B"/>
</linearGradient>
<linearGradient id="paint5_linear_137_386" x1="20.4536" y1="5.75693" x2="49.401" y2="49.6083" gradientUnits="userSpaceOnUse">
<stop stop-color="#8DC122"/>
<stop offset="0.602664" stop-color="#7CA91E"/>
<stop offset="1" stop-color="#709A1B"/>
</linearGradient>
<linearGradient id="paint6_linear_137_386" x1="33.7699" y1="61.9589" x2="52.7904" y2="76.5886" gradientUnits="userSpaceOnUse">
<stop stop-color="#8DC122"/>
<stop offset="0.602664" stop-color="#7CA91E"/>
<stop offset="1" stop-color="#709A1B"/>
</linearGradient>
<linearGradient id="paint7_linear_137_386" x1="25.1669" y1="3.88214" x2="24.8089" y2="50.2338" gradientUnits="userSpaceOnUse">
<stop stop-color="#03A0E3"/>
<stop offset="1" stop-color="#027FB5"/>
</linearGradient>
<linearGradient id="paint8_linear_137_386" x1="58.5168" y1="36.5001" x2="11.8017" y2="36.5001" gradientUnits="userSpaceOnUse">
<stop stop-color="#03A0E3"/>
<stop offset="1" stop-color="#027FB5"/>
</linearGradient>
<linearGradient id="paint9_linear_137_386" x1="-5.50323e-07" y1="23.9224" x2="47.21" y2="34.5506" gradientUnits="userSpaceOnUse">
<stop stop-color="#03A0E3"/>
<stop offset="1" stop-color="#027FB5"/>
</linearGradient>
<linearGradient id="paint10_linear_137_386" x1="11.6163" y1="14.3225" x2="41.212" y2="58.2003" gradientUnits="userSpaceOnUse">
<stop stop-color="#03A0E3"/>
<stop offset="1" stop-color="#027FB5"/>
</linearGradient>
<linearGradient id="paint11_linear_137_386" x1="60.1825" y1="27.1861" x2="60.1297" y2="38.2509" gradientUnits="userSpaceOnUse">
<stop stop-color="#03A0E3"/>
<stop offset="1" stop-color="#027FB5"/>
</linearGradient>
<linearGradient id="paint12_linear_137_386" x1="50.1572" y1="15.5951" x2="40.1677" y2="31.8998" gradientUnits="userSpaceOnUse">
<stop stop-color="#03A0E3"/>
<stop offset="1" stop-color="#027FB5"/>
</linearGradient>
<clipPath id="clip0_137_386">
<rect width="297.073" height="73.7606" fill="white"/>
</clipPath>
</defs>
</svg>
